<?xml version="1.0" encoding="UTF-8" standalone="no"?>
<!-- Created with Inkscape (http://www.inkscape.org/) -->

<svg
   xmlns:dc="http://purl.org/dc/elements/1.1/"
   xmlns:cc="http://creativecommons.org/ns#"
   xmlns:rdf="http://www.w3.org/1999/02/22-rdf-syntax-ns#"
   xmlns:svg="http://www.w3.org/2000/svg"
   xmlns="http://www.w3.org/2000/svg"
   xmlns:xlink="http://www.w3.org/1999/xlink"
   xmlns:sodipodi="http://sodipodi.sourceforge.net/DTD/sodipodi-0.dtd"
   xmlns:inkscape="http://www.inkscape.org/namespaces/inkscape"
   width="210mm"
   height="297mm"
   viewBox="0 0 744.09448819 1052.3622047"
   id="svg4594"
   version="1.1"
   inkscape:version="0.91 r"
   sodipodi:docname="A.svg"
   inkscape:export-filename="/mnt/public/htdocs/sql/devildefi/A.png"
   inkscape:export-xdpi="93.040001"
   inkscape:export-ydpi="93.040001">
  <defs
     id="defs4596">
    <radialGradient
       r="76.099152"
       id="radialGradient16433"
       fx="-932.78564"
       fy="-100.00805"
       gradientUnits="userSpaceOnUse"
       inkscape:collect="always"
       cy="-100.00805"
       cx="-932.78564"
       xlink:href="#linearGradient15340"
       gradientTransform="matrix(1.0779335,0.2187431,-0.2802811,2.1235024,45.989038,314.48349)" />
    <linearGradient
       id="linearGradient15340">
      <stop
         offset="0"
         style="stop-color:#fff30c;stop-opacity:1;"
         id="stop15342" />
      <stop
         offset="0.5"
         style="stop-color:#e5f906;stop-opacity:1;"
         id="stop15369" />
      <stop
         offset="1"
         style="stop-color:#aad400;stop-opacity:1;"
         id="stop15344" />
    </linearGradient>
    <radialGradient
       r="11.382621"
       id="radialGradient16435"
       fx="-376.73688"
       fy="13.398521"
       gradientUnits="userSpaceOnUse"
       inkscape:collect="always"
       cy="13.398521"
       cx="-376.73688"
       xlink:href="#linearGradient15361"
       gradientTransform="matrix(-1.2086298,1.0854236,-0.8403532,-0.9357398,-813.2482,428.46342)" />
    <linearGradient
       id="linearGradient15361"
       inkscape:collect="always">
      <stop
         offset="0"
         style="stop-color:#a0892c;stop-opacity:1;"
         id="stop15363" />
      <stop
         offset="1"
         style="stop-color:#a0892c;stop-opacity:0;"
         id="stop15365" />
    </linearGradient>
    <radialGradient
       r="8.390625"
       id="radialGradient16437"
       fx="-472.26831"
       fy="130.0453"
       gradientUnits="userSpaceOnUse"
       inkscape:collect="always"
       cy="130.0453"
       cx="-472.26831"
       xlink:href="#linearGradient15361"
       gradientTransform="matrix(0.8204646,-1.0088771,0.7827177,0.6365418,-184.24672,-427.5285)" />
    <radialGradient
       r="72.859077"
       id="radialGradient16439"
       fx="-204.28514"
       fy="215.49054"
       gradientUnits="userSpaceOnUse"
       inkscape:collect="always"
       cy="215.49054"
       cx="-204.28514"
       xlink:href="#linearGradient15066"
       gradientTransform="matrix(-0.06221376,-0.2071618,0.9193977,-0.2761143,412.26098,12.940398)" />
    <linearGradient
       id="linearGradient15066">
      <stop
         offset="0"
         style="stop-color:#266000;stop-opacity:1;"
         id="stop15068" />
      <stop
         offset="1"
         style="stop-color:#6eb600;stop-opacity:1;"
         id="stop15070" />
    </linearGradient>
    <radialGradient
       r="72.859077"
       id="radialGradient16441"
       fx="-156.24869"
       fy="214.45776"
       gradientUnits="userSpaceOnUse"
       inkscape:collect="always"
       cy="214.45776"
       cx="-156.24869"
       xlink:href="#linearGradient15066"
       gradientTransform="matrix(-0.06221376,-0.2071618,0.9193977,-0.2761143,412.26098,12.940398)" />
    <radialGradient
       r="72.859077"
       id="radialGradient16443"
       fx="-204.28514"
       fy="215.49054"
       gradientUnits="userSpaceOnUse"
       inkscape:collect="always"
       cy="215.49054"
       cx="-204.28514"
       xlink:href="#linearGradient15066"
       gradientTransform="matrix(-0.06221376,-0.2071618,0.9193977,-0.2761143,412.26098,12.940398)" />
    <radialGradient
       r="72.859077"
       id="radialGradient16445"
       fx="-156.24869"
       fy="214.45776"
       gradientUnits="userSpaceOnUse"
       inkscape:collect="always"
       cy="214.45776"
       cx="-156.24869"
       xlink:href="#linearGradient15066"
       gradientTransform="matrix(-0.06221376,-0.2071618,0.9193977,-0.2761143,412.26098,12.940398)" />
    <linearGradient
       id="linearGradient16447"
       gradientUnits="userSpaceOnUse"
       inkscape:collect="always"
       x1="-468.59518"
       x2="-402.48828"
       xlink:href="#linearGradient13836"
       y1="37.146729"
       y2="78.09156" />
    <linearGradient
       id="linearGradient13836"
       inkscape:collect="always">
      <stop
         offset="0"
         style="stop-color:#ffffff;stop-opacity:1;"
         id="stop13838" />
      <stop
         offset="1"
         style="stop-color:#ffffff;stop-opacity:0;"
         id="stop13840" />
    </linearGradient>
  </defs>
  <sodipodi:namedview
     id="base"
     pagecolor="#ffffff"
     bordercolor="#666666"
     borderopacity="1.0"
     inkscape:pageopacity="0.0"
     inkscape:pageshadow="2"
     inkscape:zoom="0.49497475"
     inkscape:cx="-117.72059"
     inkscape:cy="1043.318"
     inkscape:document-units="px"
     inkscape:current-layer="layer1"
     showgrid="false"
     inkscape:window-width="925"
     inkscape:window-height="636"
     inkscape:window-x="1216"
     inkscape:window-y="279"
     inkscape:window-maximized="0" />
  <metadata
     id="metadata4599">
    <rdf:RDF>
      <cc:Work
         rdf:about="">
        <dc:format>image/svg+xml</dc:format>
        <dc:type
           rdf:resource="http://purl.org/dc/dcmitype/StillImage" />
        <dc:title />
      </cc:Work>
    </rdf:RDF>
  </metadata>
  <g
     inkscape:label="Livello 1"
     inkscape:groupmode="layer"
     id="layer1">
    <g
       id="g16419"
       transform="matrix(0.4855472,0,0,0.4855472,254.01486,26.613471)"
       inkscape:export-xdpi="58.150002"
       inkscape:export-ydpi="58.150002">
      <path
         d="m -829.77655,-71.519452 c -2.79598,77.1477414 -47.6358,79.9967092 -71.33208,125.543695 -2.54702,4.895683 -5.93328,2.327477 -7.54232,-0.650922 -19.71362,-36.490763 -72.88313,-82.606107 -72.88313,-158.084111 0,-80.1416 41.57237,-105.81565 74.10301,-139.12239 5.52219,-5.65394 13.13443,-16.37705 16.22668,-6.27118 20.52836,67.08923 66.86885,93.87327 61.42784,178.584908 z"
         style="color:#000000;display:inline;overflow:visible;visibility:visible;fill:url(#radialGradient16433);fill-opacity:1;fill-rule:evenodd;stroke:#000000;stroke-width:1.75672126;stroke-linecap:butt;stroke-linejoin:miter;stroke-miterlimit:4;stroke-dasharray:none;stroke-dashoffset:0;stroke-opacity:1;marker:none;marker-start:none;marker-mid:none;marker-end:none;enable-background:accumulate"
         id="path15337"
         sodipodi:nodetypes="csssssc"
         transform="matrix(0.6206262,0.3141338,-0.3019221,0.4008379,108.31171,392.77861)"
         inkscape:connector-curvature="0" />
      <path
         style="color:#000000;display:inline;overflow:visible;visibility:visible;fill:url(#radialGradient16435);fill-opacity:1;fill-rule:evenodd;stroke:none;stroke-width:0.5;stroke-linecap:butt;stroke-linejoin:miter;stroke-miterlimit:4;stroke-dashoffset:0;stroke-opacity:1;marker:none;marker-start:none;marker-mid:none;marker-end:none;enable-background:accumulate"
         id="path15359"
         d="m -373.875,9.1875 c -2.33038,0.06366 -5.12876,0.5799222 -7.375,0.8125 -3.52525,0.365006 -7.09245,0.636951 -10.6875,0.90625 L -370.75,37.8125 c -0.52931,-8.03043 -0.53524,-16.359573 1.46875,-25.25 0.63678,-2.8249852 -1.59755,-3.4568491 -4.59375,-3.375 z"
         inkscape:connector-curvature="0" />
      <path
         style="color:#000000;display:inline;overflow:visible;visibility:visible;fill:url(#radialGradient16437);fill-opacity:1;fill-rule:evenodd;stroke:none;stroke-width:0.5;stroke-linecap:butt;stroke-linejoin:miter;stroke-miterlimit:4;stroke-dashoffset:0;stroke-opacity:1;marker:none;marker-start:none;marker-mid:none;marker-end:none;enable-background:accumulate"
         id="path15350"
         d="m -474.09375,114.78125 c 1.17946,5.10546 2.10244,9.84197 2.34375,13.96875 0.0994,1.69931 1.44115,3.78727 4.5,2.625 3.31042,-1.25785 6.62696,-2.21753 9.9375,-2.9375 -3.58339,-3.52235 -8.92862,-8.09232 -16.78125,-13.65625 z"
         inkscape:connector-curvature="0" />
      <g
         transform="matrix(-0.2360086,-0.4876962,-0.4876962,0.2360086,-225.677,334.04667)"
         id="g15406">
        <path
           style="color:#000000;display:inline;overflow:visible;visibility:visible;fill:url(#radialGradient16439);fill-opacity:1;fill-rule:evenodd;stroke:#000000;stroke-width:1.06640482;stroke-linecap:butt;stroke-linejoin:miter;stroke-miterlimit:4;stroke-dasharray:none;stroke-dashoffset:0;stroke-opacity:1;marker:none;marker-start:none;marker-mid:none;marker-end:none;enable-background:accumulate"
           id="path15396"
           d="m 623.41872,-30.263383 c -0.25708,0.03462 -0.51632,0.08796 -0.76469,0.148693 0.24844,-0.06075 0.5089,-0.110989 0.76469,-0.148693 z m 22.2823,2.336561 c 0.11707,0.0433 0.20805,0.07565 0.27614,0.08497 -0.0638,-0.0087 -0.16905,-0.04653 -0.27614,-0.08497 z m 0.27614,0.08497 c 0.5545,0.07587 1.3241,0.217803 2.03918,0.446068 -0.71765,-0.229812 -1.48468,-0.370193 -2.03918,-0.446068 z m 4.43947,1.975458 c 0.3191,0.192831 0.69964,0.382308 1.10455,0.573519 -0.40477,-0.190205 -0.78554,-0.381443 -1.10455,-0.573519 z m 1.10455,0.573519 c 0.80981,0.382413 1.684,0.739563 2.18787,0.955864 -0.50387,-0.216301 -1.37833,-0.575464 -2.18787,-0.955864 z m 2.18787,0.955864 c 0.0376,0.01612 0.069,0.05014 0.1062,0.08497 -0.0402,-0.03947 -0.0655,-0.0675 -0.1062,-0.08497 z m 0.1062,0.08497 c 0.11158,0.104489 0.23434,0.278898 0.33987,0.509796 -0.10254,-0.225753 -0.23151,-0.40355 -0.33987,-0.509796 z m -2.31531,5.35285 c -5.10355,0.02018 -15.52969,0.673039 -30.05668,4.694363 -21.13017,5.8492013 -51.66401,24.229338 -55.48271,25.064937 -2.85156,0.623974 -6.40889,2.688547 -8.02928,3.696011 2.20339,-0.538781 4.42392,-1.075576 6.62734,-1.614349 1.61548,-0.395032 4.2984,-1.539832 6.66982,-1.635595 1.88614,-0.07615 3.96795,0.198476 5.73519,-0.233656 2.61895,-0.640397 4.75097,-1.1601883 7.47699,-1.8267653 3.07487,-0.751888 -0.007,1.3068633 3.95093,1.1470393 1.05454,-0.04258 4.78271,-0.232549 5.39533,-0.382344 1.95859,-0.4789263 2.37668,1.055593 2.69766,0.977105 1.97401,-0.482687 4.08277,-1.4920833 6.05382,-1.6993183 1.11452,-0.11719 2.28076,0.60283 3.35615,0.339863 2.02462,-0.495063 1.75902,1.9560373 3.90844,1.8692523 1.62027,-0.06543 4.26961,-1.27396 5.14043,-1.019593 0.20329,0.05939 1.82319,1.431733 3.33491,1.062075 2.81052,-0.687246 3.1096,-0.05423 5.8414,-0.722212 1.58266,-0.387 1.71192,-0.171802 0.31863,0.849659 2.1271,-0.918111 3.98493,-6.09e-4 6.05381,-0.998348 0.25468,-0.122828 4.47593,-1.2130003 5.96886,-1.9329743 2.5052,-1.208159 1.93376,3.1530793 6.47865,-3.696016 1.06523,-1.605305 0.45671,-0.915026 3.90843,-3.547324 4.35923,-3.3243671 0.2895,0.909318 0.33986,0.8709 0.0798,-0.060848 3.65037,-3.17584857 4.4607,-4.3969825 1.40135,-2.1118196 1.34,0.1742176 1.44443,-0.8071765 0.13882,-1.3048947 1.58023,-2.1384567 1.86924,-3.5048411 0.19635,-0.9283124 1.22992,-2.190157 1.97546,-3.313671 0.82426,-1.2421556 0.75442,-2.8080626 -0.23365,-3.6960166 0.0545,-0.512025 0.1204,-2.762802 -0.0637,-3.249943 -0.23184,-0.613334 -0.46915,-1.234686 -0.70098,-1.84801 l -0.89214,-0.339863 c 0,0 -1.22753,-0.115382 -3.54732,-0.106206 z m -58.96632,3.398636 c -0.48873,0.308297 -0.88994,0.681478 -1.27449,1.06207 0.38135,-0.377004 0.79054,-0.756556 1.27449,-1.06207 z m -1.82677,1.614349 c -0.35044,0.38234 -0.69141,0.770891 -1.01959,1.104557 0.33174,-0.336687 0.66548,-0.717525 1.01959,-1.104557 z m -1.01959,1.104557 c -0.32817,0.333666 -0.63897,0.623421 -0.99835,0.828418 0.3553,-0.202672 0.67406,-0.499288 0.99835,-0.828418 z m -0.99835,0.828418 c -0.34164,0.194891 -0.77291,0.537623 -1.232,0.955864 0.46029,-0.417481 0.89036,-0.760973 1.232,-0.955864 z m -1.232,0.955864 c -0.23292,0.212201 -0.46055,0.43746 -0.70097,0.67973 0.2377,-0.237987 0.47082,-0.470989 0.70097,-0.67973 z m -0.70097,0.67973 c -0.47039,0.4740054 -0.96816,0.9809828 -1.3807,1.465661 0.41709,-0.4873189 0.90532,-0.9896963 1.3807,-1.465661 z m -4.46071,5.2466416 c -0.62393,0.4927206 -1.33518,0.9492104 -1.9967,1.3169727 0.66089,-0.3683122 1.37421,-0.8229939 1.9967,-1.3169727 z m -3.16498,1.9754575 c -0.17882,0.1307233 -0.35509,0.2831824 -0.53103,0.4460729 0.17243,-0.1583184 0.35584,-0.3184346 0.53103,-0.4460729 z m -4.05712,3.86594463 c -0.28354,0.25996897 -0.49109,0.52620397 -0.65848,0.78593597 0.16662,-0.260409 0.3753,-0.525646 0.65848,-0.78593597 z m -4.80057,4.37574597 c -0.35275,0.265315 -0.67317,0.543962 -0.91339,0.807173 0.2403,-0.263504 0.56051,-0.54141 0.91339,-0.807173 z m -1.35945,1.571866 c -0.0498,0.235159 -0.12525,0.419075 -0.21242,0.57352 0.0876,-0.154564 0.16267,-0.338361 0.21242,-0.57352 z m -0.36111,0.785936 c -0.15444,0.183362 -0.34423,0.294987 -0.55227,0.382346 0.20947,-0.087735 0.39689,-0.198746 0.55227,-0.382346 z"
           inkscape:connector-curvature="0" />
        <path
           style="fill:url(#radialGradient16441);fill-opacity:1;fill-rule:evenodd;stroke:#000000;stroke-width:1.06640482;stroke-linecap:butt;stroke-linejoin:miter;stroke-miterlimit:4;stroke-dasharray:none;stroke-opacity:1"
           id="path15398"
           d="m 624.43831,-30.348347 c -0.59774,0.011 -1.20499,0.09201 -1.78428,0.233657 -2.03416,0.497397 -4.11797,1.225967 -6.05383,1.699318 -2.08653,0.510217 -3.37872,1.125088 -5.09795,1.954211 -1.59355,0.768502 -3.47279,1.36092 -5.37409,2.017943 -1.91518,0.661822 -6.75178,4.22677 -6.83976,4.24829 -2.63193,0.643574 -3.51888,3.233279 -5.96885,4.290777 -2.22143,0.958854 -3.19313,3.130905 -4.63064,3.950915 -1.36658,0.77956 -4.15417,3.9031542 -4.58815,4.8642965 -0.57763,1.2792683 -2.77811,2.8735703 -4.43947,3.6747746 -1.4291,0.6891991 -2.73688,2.87898123 -4.0996,3.80222163 -1.44177,0.97680397 -1.54617,2.29646297 -1.93298,2.59145897 -0.93592,0.713727 -4.44267,2.448208 -4.7156,3.738498 -0.39792,1.88129 -2.13417,0.836093 -3.18622,2.421531 -0.12482,0.188094 -1.5916,2.0833613 -3.80223,3.0375273 -1.47766,0.637811 -5.66162,2.792639 -4.05712,2.400289 0.0133,-0.0033 0.0292,0.0033 0.0425,0 0.008,-0.002 0.013,-0.01922 0.0213,-0.02125 1.62039,-1.007464 5.17772,-3.072037 8.02928,-3.696011 3.8187,-0.835599 34.35254,-19.2157357 55.48271,-25.064937 21.13017,-5.849201 33.604,-4.588148 33.604,-4.588157 l 0.89214,0.339863 c -0.28226,-0.746786 -0.56738,-1.504811 -0.84966,-2.251592 -0.21655,-0.572897 -0.77969,-3.374314 -1.38069,-3.632293 -1.00774,-0.432612 -3.49287,-1.410248 -3.9934,-2.081662 -0.64739,-0.868456 -2.62948,-1.271434 -3.73849,-1.423179 -0.51049,-0.06985 -2.6148,-1.255606 -3.05877,-1.147039 -1.43821,0.351675 -1.92937,-0.128197 -3.52609,-0.06373 -1.33889,0.05407 -2.23832,-0.415385 -3.24994,-0.849659 -1.90477,-0.817667 -2.84497,0.105496 -5.01299,-0.19117 -0.76586,-0.104787 -3.10411,0.342091 -4.05713,0.06372 -0.67234,-0.196401 -1.63771,-0.336956 -2.63393,-0.318621 z"
           inkscape:connector-curvature="0" />
        <path
           style="fill:none;fill-opacity:1;fill-rule:evenodd;stroke:none;stroke-width:1px;stroke-linecap:butt;stroke-linejoin:miter;stroke-opacity:1"
           id="path15400"
           d="m 623.22432,-36.802539 c 0,0 23.62051,7.338319 27.73063,11.448424 3.56173,3.561728 5.08819,6.360234 5.08819,6.360234 -8.24873,3.133677 3.28062,8.888967 -7.63229,35.871737 M 554.53377,8.9911587 c 1.95716,-1.879037 10.76089,0.103038 9.66756,2.2896893 -0.008,2.757992 -0.26849,5.579327 -5.597,9.667556 M 558.34992,6.4470607 c 0.92421,-0.887322 4.77722,-0.455309 7.1862,0.277338 2.37851,0.70218 4.28384,1.841937 3.76754,2.874519 -0.46542,2.7788673 -0.0713,5.7631973 -5.71009,11.1233493 M 562.67488,2.6309207 c 0.86985,-0.835127 5.88566,0.00314 8.3947,0.934458 2.44811,0.870393 4.33115,2.10772 3.84522,3.079557 -0.92326,2.799737 0.12585,5.9470683 -5.82315,12.5791383 m -2.85504,-19.64605837 c 0.81548,-0.78293773 6.99408,0.4615781 9.60319,1.59157807 2.51771,1.038596 4.37846,2.373496 3.92291,3.2846 -1.3811,2.820607 0.32302,6.1309373 -5.93622,14.0349263 m -3.77374,-22.4728414 c 0.76111,-0.7307434 8.10252,0.9200371 10.8117,2.2486994 2.58732,1.20680883 4.42577,2.63928273 4.0006,3.4896417 -1.83895,2.841483 0.52019,6.314808 -6.0493,15.4907163 M 574.1233,-7.7998609 c 0.70676,-0.6785357 9.21094,1.3784862 12.02019,2.9058286 2.65691,1.3750118 4.47309,2.9050644 4.07829,3.6946888 -2.29679,2.8623442 0.71736,6.4986732 -6.16237,16.9464995 m -6.37438,-26.854349 c 0.65238,-0.626342 10.31937,1.8369341 13.22868,3.5629536 2.72653,1.5432241 4.52041,3.1708418 4.15596,3.8997263 -2.75461,2.88321993 0.91455,6.6825398 -6.27543,18.4022831 m -8.05629,-28.917864 c 0.59802,-0.574151 11.4278,2.295378 14.43718,4.2200739 2.79612,1.7114281 4.56772,3.4366233 4.23364,4.104769 -3.21246,2.9040941 1.11173,6.8664048 -6.3885,19.8580771 m -9.22941,-31.235839 c 0.54365,-0.521953 12.53623,2.753836 15.64567,4.877194 2.86572,1.879641 4.61503,3.7024096 4.31134,4.3098165 -3.67031,2.9249599 1.30888,7.05027493 -6.50158,21.3138565 m -9.63929,-33.04497 c 0.48929,-0.469757 13.64466,3.212285 16.85417,5.534319 2.93532,2.047854 4.66235,3.968192 4.38901,4.5148545 -4.12815,2.9458351 1.50608,7.2341452 -6.61464,22.7696455 m -11.06681,-35.617315 c 0.43493,-0.41756 14.75309,3.670733 18.06267,6.191443 3.00492,2.216062 4.70966,4.233973 4.4667,4.719897 -4.58599,2.9667096 1.70324,7.4180147 -6.72771,24.225438 m -11.73111,-38.189698 c 0.38056,-0.365365 15.86152,4.129182 19.27116,6.848573 3.07453,2.384261 4.75698,4.499752 4.5444,4.924931 -5.04384,2.98758 1.9004,7.6018937 -6.84079,25.681221 m -12.64981,-39.489997 c 0.3262,-0.313175 16.96994,4.587626 20.47966,7.505684 3.14412,2.552474 4.80429,4.765543 4.62207,5.129979 -5.50167,3.008454 2.09759,7.7857588 -6.95386,27.137014 m -14.32854,-42.059162 c 0.277,-0.260944 18.42246,5.045311 22.10095,8.161564 3.2749,2.720283 4.94397,5.030564 4.78922,5.33421 -6.07295,3.028872 2.33843,7.9684211 -7.20143,28.588465 m -15.62138,-43.868302 c 0.21747,-0.208782 19.18681,5.504523 22.89665,8.81993 3.28332,2.888894 4.89893,5.297105 4.77745,5.540067 -6.41737,3.050186 2.49192,8.1534903 -7.18001,30.048582 m -16.67794,-46.189452 c 0.16309,-0.156583 20.29523,5.962973 24.10515,9.477059 3.35293,3.057098 4.94623,5.562888 4.85512,5.745106 -6.87519,3.071061 2.68911,8.3373562 -7.29306,31.504371 m -17.59666,-47.744165 c 0.10873,-0.104388 21.40366,6.421426 25.31364,10.134175 3.42252,3.225311 4.99355,5.828673 4.93281,5.950152 -7.33303,3.091937 2.88629,8.5212271 -7.40613,32.960161 m -19.02418,-50.062126 c 0.0544,-0.05219 22.51208,6.87987 26.52214,10.791299 3.49213,3.393524 5.04087,6.094452 5.01049,6.155191 -7.79088,3.112807 3.08346,8.7051008 -7.51921,34.415949"
           inkscape:connector-curvature="0" />
      </g>
      <g
         id="g15424"
         transform="matrix(0.2935784,0.1256514,-0.01594854,0.3439729,-561.48936,-67.835189)">
        <path
           style="color:#000000;display:inline;overflow:visible;visibility:visible;fill:url(#radialGradient16443);fill-opacity:1;fill-rule:evenodd;stroke:#000000;stroke-width:1.06640482;stroke-linecap:butt;stroke-linejoin:miter;stroke-miterlimit:4;stroke-dasharray:none;stroke-dashoffset:0;stroke-opacity:1;marker:none;marker-start:none;marker-mid:none;marker-end:none;enable-background:accumulate"
           d="m 623.41872,-30.263383 c -0.25708,0.03462 -0.51632,0.08796 -0.76469,0.148693 0.24844,-0.06075 0.5089,-0.110989 0.76469,-0.148693 z m 22.2823,2.336561 c 0.11707,0.0433 0.20805,0.07565 0.27614,0.08497 -0.0638,-0.0087 -0.16905,-0.04653 -0.27614,-0.08497 z m 0.27614,0.08497 c 0.5545,0.07587 1.3241,0.217803 2.03918,0.446068 -0.71765,-0.229812 -1.48468,-0.370193 -2.03918,-0.446068 z m 4.43947,1.975458 c 0.3191,0.192831 0.69964,0.382308 1.10455,0.573519 -0.40477,-0.190205 -0.78554,-0.381443 -1.10455,-0.573519 z m 1.10455,0.573519 c 0.80981,0.382413 1.684,0.739563 2.18787,0.955864 -0.50387,-0.216301 -1.37833,-0.575464 -2.18787,-0.955864 z m 2.18787,0.955864 c 0.0376,0.01612 0.069,0.05014 0.1062,0.08497 -0.0402,-0.03947 -0.0655,-0.0675 -0.1062,-0.08497 z m 0.1062,0.08497 c 0.11158,0.104489 0.23434,0.278898 0.33987,0.509796 -0.10254,-0.225753 -0.23151,-0.40355 -0.33987,-0.509796 z m -2.31531,5.35285 c -5.10355,0.02018 -15.52969,0.673039 -30.05668,4.694363 -21.13017,5.8492013 -51.66401,24.229338 -55.48271,25.064937 -2.85156,0.623974 -6.40889,2.688547 -8.02928,3.696011 2.20339,-0.538781 4.42392,-1.075576 6.62734,-1.614349 1.61548,-0.395032 4.2984,-1.539832 6.66982,-1.635595 1.88614,-0.07615 3.96795,0.198476 5.73519,-0.233656 2.61895,-0.640397 4.75097,-1.1601883 7.47699,-1.8267653 3.07487,-0.751888 -0.007,1.3068633 3.95093,1.1470393 1.05454,-0.04258 4.78271,-0.232549 5.39533,-0.382344 1.95859,-0.4789263 2.37668,1.055593 2.69766,0.977105 1.97401,-0.482687 4.08277,-1.4920833 6.05382,-1.6993183 1.11452,-0.11719 2.28076,0.60283 3.35615,0.339863 2.02462,-0.495063 1.75902,1.9560373 3.90844,1.8692523 1.62027,-0.06543 4.26961,-1.27396 5.14043,-1.019593 0.20329,0.05939 1.82319,1.431733 3.33491,1.062075 2.81052,-0.687246 3.1096,-0.05423 5.8414,-0.722212 1.58266,-0.387 1.71192,-0.171802 0.31863,0.849659 2.1271,-0.918111 3.98493,-6.09e-4 6.05381,-0.998348 0.25468,-0.122828 4.47593,-1.2130003 5.96886,-1.9329743 2.5052,-1.208159 1.93376,3.1530793 6.47865,-3.696016 1.06523,-1.605305 0.45671,-0.915026 3.90843,-3.547324 4.35923,-3.3243671 0.2895,0.909318 0.33986,0.8709 0.0798,-0.060848 3.65037,-3.17584857 4.4607,-4.3969825 1.40135,-2.1118196 1.34,0.1742176 1.44443,-0.8071765 0.13882,-1.3048947 1.58023,-2.1384567 1.86924,-3.5048411 0.19635,-0.9283124 1.22992,-2.190157 1.97546,-3.313671 0.82426,-1.2421556 0.75442,-2.8080626 -0.23365,-3.6960166 0.0545,-0.512025 0.1204,-2.762802 -0.0637,-3.249943 -0.23184,-0.613334 -0.46915,-1.234686 -0.70098,-1.84801 l -0.89214,-0.339863 c 0,0 -1.22753,-0.115382 -3.54732,-0.106206 z m -58.96632,3.398636 c -0.48873,0.308297 -0.88994,0.681478 -1.27449,1.06207 0.38135,-0.377004 0.79054,-0.756556 1.27449,-1.06207 z m -1.82677,1.614349 c -0.35044,0.38234 -0.69141,0.770891 -1.01959,1.104557 0.33174,-0.336687 0.66548,-0.717525 1.01959,-1.104557 z m -1.01959,1.104557 c -0.32817,0.333666 -0.63897,0.623421 -0.99835,0.828418 0.3553,-0.202672 0.67406,-0.499288 0.99835,-0.828418 z m -0.99835,0.828418 c -0.34164,0.194891 -0.77291,0.537623 -1.232,0.955864 0.46029,-0.417481 0.89036,-0.760973 1.232,-0.955864 z m -1.232,0.955864 c -0.23292,0.212201 -0.46055,0.43746 -0.70097,0.67973 0.2377,-0.237987 0.47082,-0.470989 0.70097,-0.67973 z m -0.70097,0.67973 c -0.47039,0.4740054 -0.96816,0.9809828 -1.3807,1.465661 0.41709,-0.4873189 0.90532,-0.9896963 1.3807,-1.465661 z m -4.46071,5.2466416 c -0.62393,0.4927206 -1.33518,0.9492104 -1.9967,1.3169727 0.66089,-0.3683122 1.37421,-0.8229939 1.9967,-1.3169727 z m -3.16498,1.9754575 c -0.17882,0.1307233 -0.35509,0.2831824 -0.53103,0.4460729 0.17243,-0.1583184 0.35584,-0.3184346 0.53103,-0.4460729 z m -4.05712,3.86594463 c -0.28354,0.25996897 -0.49109,0.52620397 -0.65848,0.78593597 0.16662,-0.260409 0.3753,-0.525646 0.65848,-0.78593597 z m -4.80057,4.37574597 c -0.35275,0.265315 -0.67317,0.543962 -0.91339,0.807173 0.2403,-0.263504 0.56051,-0.54141 0.91339,-0.807173 z m -1.35945,1.571866 c -0.0498,0.235159 -0.12525,0.419075 -0.21242,0.57352 0.0876,-0.154564 0.16267,-0.338361 0.21242,-0.57352 z m -0.36111,0.785936 c -0.15444,0.183362 -0.34423,0.294987 -0.55227,0.382346 0.20947,-0.087735 0.39689,-0.198746 0.55227,-0.382346 z"
           id="path15426"
           inkscape:connector-curvature="0" />
        <path
           style="fill:url(#radialGradient16445);fill-opacity:1;fill-rule:evenodd;stroke:#000000;stroke-width:1.06640482;stroke-linecap:butt;stroke-linejoin:miter;stroke-miterlimit:4;stroke-dasharray:none;stroke-opacity:1"
           d="m 624.43831,-30.348347 c -0.59774,0.011 -1.20499,0.09201 -1.78428,0.233657 -2.03416,0.497397 -4.11797,1.225967 -6.05383,1.699318 -2.08653,0.510217 -3.37872,1.125088 -5.09795,1.954211 -1.59355,0.768502 -3.47279,1.36092 -5.37409,2.017943 -1.91518,0.661822 -6.75178,4.22677 -6.83976,4.24829 -2.63193,0.643574 -3.51888,3.233279 -5.96885,4.290777 -2.22143,0.958854 -3.19313,3.130905 -4.63064,3.950915 -1.36658,0.77956 -4.15417,3.9031542 -4.58815,4.8642965 -0.57763,1.2792683 -2.77811,2.8735703 -4.43947,3.6747746 -1.4291,0.6891991 -2.73688,2.87898123 -4.0996,3.80222163 -1.44177,0.97680397 -1.54617,2.29646297 -1.93298,2.59145897 -0.93592,0.713727 -4.44267,2.448208 -4.7156,3.738498 -0.39792,1.88129 -2.13417,0.836093 -3.18622,2.421531 -0.12482,0.188094 -1.5916,2.0833613 -3.80223,3.0375273 -1.47766,0.637811 -5.66162,2.792639 -4.05712,2.400289 0.0133,-0.0033 0.0292,0.0033 0.0425,0 0.008,-0.002 0.013,-0.01922 0.0213,-0.02125 1.62039,-1.007464 5.17772,-3.072037 8.02928,-3.696011 3.8187,-0.835599 34.35254,-19.2157357 55.48271,-25.064937 21.13017,-5.849201 33.604,-4.588148 33.604,-4.588157 l 0.89214,0.339863 c -0.28226,-0.746786 -0.56738,-1.504811 -0.84966,-2.251592 -0.21655,-0.572897 -0.77969,-3.374314 -1.38069,-3.632293 -1.00774,-0.432612 -3.49287,-1.410248 -3.9934,-2.081662 -0.64739,-0.868456 -2.62948,-1.271434 -3.73849,-1.423179 -0.51049,-0.06985 -2.6148,-1.255606 -3.05877,-1.147039 -1.43821,0.351675 -1.92937,-0.128197 -3.52609,-0.06373 -1.33889,0.05407 -2.23832,-0.415385 -3.24994,-0.849659 -1.90477,-0.817667 -2.84497,0.105496 -5.01299,-0.19117 -0.76586,-0.104787 -3.10411,0.342091 -4.05713,0.06372 -0.67234,-0.196401 -1.63771,-0.336956 -2.63393,-0.318621 z"
           id="path15428"
           inkscape:connector-curvature="0" />
        <path
           style="fill:none;fill-opacity:1;fill-rule:evenodd;stroke:none;stroke-width:1px;stroke-linecap:butt;stroke-linejoin:miter;stroke-opacity:1"
           d="m 623.22432,-36.802539 c 0,0 23.62051,7.338319 27.73063,11.448424 3.56173,3.561728 5.08819,6.360234 5.08819,6.360234 -8.24873,3.133677 3.28062,8.888967 -7.63229,35.871737 M 554.53377,8.9911587 c 1.95716,-1.879037 10.76089,0.103038 9.66756,2.2896893 -0.008,2.757992 -0.26849,5.579327 -5.597,9.667556 M 558.34992,6.4470607 c 0.92421,-0.887322 4.77722,-0.455309 7.1862,0.277338 2.37851,0.70218 4.28384,1.841937 3.76754,2.874519 -0.46542,2.7788673 -0.0713,5.7631973 -5.71009,11.1233493 M 562.67488,2.6309207 c 0.86985,-0.835127 5.88566,0.00314 8.3947,0.934458 2.44811,0.870393 4.33115,2.10772 3.84522,3.079557 -0.92326,2.799737 0.12585,5.9470683 -5.82315,12.5791383 m -2.85504,-19.64605837 c 0.81548,-0.78293773 6.99408,0.4615781 9.60319,1.59157807 2.51771,1.038596 4.37846,2.373496 3.92291,3.2846 -1.3811,2.820607 0.32302,6.1309373 -5.93622,14.0349263 m -3.77374,-22.4728414 c 0.76111,-0.7307434 8.10252,0.9200371 10.8117,2.2486994 2.58732,1.20680883 4.42577,2.63928273 4.0006,3.4896417 -1.83895,2.841483 0.52019,6.314808 -6.0493,15.4907163 M 574.1233,-7.7998609 c 0.70676,-0.6785357 9.21094,1.3784862 12.02019,2.9058286 2.65691,1.3750118 4.47309,2.9050644 4.07829,3.6946888 -2.29679,2.8623442 0.71736,6.4986732 -6.16237,16.9464995 m -6.37438,-26.854349 c 0.65238,-0.626342 10.31937,1.8369341 13.22868,3.5629536 2.72653,1.5432241 4.52041,3.1708418 4.15596,3.8997263 -2.75461,2.88321993 0.91455,6.6825398 -6.27543,18.4022831 m -8.05629,-28.917864 c 0.59802,-0.574151 11.4278,2.295378 14.43718,4.2200739 2.79612,1.7114281 4.56772,3.4366233 4.23364,4.104769 -3.21246,2.9040941 1.11173,6.8664048 -6.3885,19.8580771 m -9.22941,-31.235839 c 0.54365,-0.521953 12.53623,2.753836 15.64567,4.877194 2.86572,1.879641 4.61503,3.7024096 4.31134,4.3098165 -3.67031,2.9249599 1.30888,7.05027493 -6.50158,21.3138565 m -9.63929,-33.04497 c 0.48929,-0.469757 13.64466,3.212285 16.85417,5.534319 2.93532,2.047854 4.66235,3.968192 4.38901,4.5148545 -4.12815,2.9458351 1.50608,7.2341452 -6.61464,22.7696455 m -11.06681,-35.617315 c 0.43493,-0.41756 14.75309,3.670733 18.06267,6.191443 3.00492,2.216062 4.70966,4.233973 4.4667,4.719897 -4.58599,2.9667096 1.70324,7.4180147 -6.72771,24.225438 m -11.73111,-38.189698 c 0.38056,-0.365365 15.86152,4.129182 19.27116,6.848573 3.07453,2.384261 4.75698,4.499752 4.5444,4.924931 -5.04384,2.98758 1.9004,7.6018937 -6.84079,25.681221 m -12.64981,-39.489997 c 0.3262,-0.313175 16.96994,4.587626 20.47966,7.505684 3.14412,2.552474 4.80429,4.765543 4.62207,5.129979 -5.50167,3.008454 2.09759,7.7857588 -6.95386,27.137014 m -14.32854,-42.059162 c 0.277,-0.260944 18.42246,5.045311 22.10095,8.161564 3.2749,2.720283 4.94397,5.030564 4.78922,5.33421 -6.07295,3.028872 2.33843,7.9684211 -7.20143,28.588465 m -15.62138,-43.868302 c 0.21747,-0.208782 19.18681,5.504523 22.89665,8.81993 3.28332,2.888894 4.89893,5.297105 4.77745,5.540067 -6.41737,3.050186 2.49192,8.1534903 -7.18001,30.048582 m -16.67794,-46.189452 c 0.16309,-0.156583 20.29523,5.962973 24.10515,9.477059 3.35293,3.057098 4.94623,5.562888 4.85512,5.745106 -6.87519,3.071061 2.68911,8.3373562 -7.29306,31.504371 m -17.59666,-47.744165 c 0.10873,-0.104388 21.40366,6.421426 25.31364,10.134175 3.42252,3.225311 4.99355,5.828673 4.93281,5.950152 -7.33303,3.091937 2.88629,8.5212271 -7.40613,32.960161 m -19.02418,-50.062126 c 0.0544,-0.05219 22.51208,6.87987 26.52214,10.791299 3.49213,3.393524 5.04087,6.094452 5.01049,6.155191 -7.79088,3.112807 3.08346,8.7051008 -7.51921,34.415949"
           id="path15430"
           inkscape:connector-curvature="0" />
      </g>
      <path
         style="color:#000000;display:inline;overflow:visible;visibility:visible;fill:url(#linearGradient16447);fill-opacity:1;fill-rule:evenodd;stroke:none;stroke-width:0.5;stroke-linecap:butt;stroke-linejoin:miter;stroke-miterlimit:4;stroke-dasharray:none;stroke-dashoffset:0;stroke-opacity:1;marker:none;marker-start:none;marker-mid:none;marker-end:none;enable-background:accumulate"
         id="path16405"
         sodipodi:nodetypes="cccccc"
         d="m -375.25,12.34375 c -25.81187,3.352373 -54.65255,0.982443 -76.53125,17.4375 -17.14262,11.857307 -27.68226,32.924356 -24.96875,53.90625 1.38668,14.976505 5.26382,25.30895 7.5489,39.55564 47.97498,-34.42221 -11.01978,-52.499236 96.35735,-110.93064 -0.79998,-0.06943 -1.60758,-0.04138 -2.40625,0.03125 z"
         inkscape:connector-curvature="0" />
    </g>
  </g>
</svg>
