<?xml version="1.0" encoding="UTF-8" standalone="no"?>
<!-- Created with Inkscape (http://www.inkscape.org/) -->

<svg
   xmlns:dc="http://purl.org/dc/elements/1.1/"
   xmlns:cc="http://creativecommons.org/ns#"
   xmlns:rdf="http://www.w3.org/1999/02/22-rdf-syntax-ns#"
   xmlns:svg="http://www.w3.org/2000/svg"
   xmlns="http://www.w3.org/2000/svg"
   xmlns:xlink="http://www.w3.org/1999/xlink"
   xmlns:sodipodi="http://sodipodi.sourceforge.net/DTD/sodipodi-0.dtd"
   xmlns:inkscape="http://www.inkscape.org/namespaces/inkscape"
   width="210mm"
   height="297mm"
   viewBox="0 0 744.09448819 1052.3622047"
   id="svg4531"
   version="1.1"
   inkscape:version="0.91 r"
   sodipodi:docname="t.svg">
  <defs
     id="defs4533">
    <radialGradient
       r="76.099152"
       id="radialGradient16433"
       fx="-932.78564"
       fy="-100.00805"
       gradientUnits="userSpaceOnUse"
       inkscape:collect="always"
       cy="-100.00805"
       cx="-932.78564"
       xlink:href="#linearGradient15340"
       gradientTransform="matrix(1.0779335,0.2187431,-0.2802811,2.1235024,45.989038,314.48349)" />
    <linearGradient
       id="linearGradient15340">
      <stop
         offset="0"
         style="stop-color:#fff30c;stop-opacity:1;"
         id="stop15342" />
      <stop
         offset="0.5"
         style="stop-color:#e5f906;stop-opacity:1;"
         id="stop15369" />
      <stop
         offset="1"
         style="stop-color:#aad400;stop-opacity:1;"
         id="stop15344" />
    </linearGradient>
    <radialGradient
       r="11.382621"
       id="radialGradient16435"
       fx="-376.73688"
       fy="13.398521"
       gradientUnits="userSpaceOnUse"
       inkscape:collect="always"
       cy="13.398521"
       cx="-376.73688"
       xlink:href="#linearGradient15361"
       gradientTransform="matrix(-1.2086298,1.0854236,-0.8403532,-0.9357398,-813.2482,428.46342)" />
    <linearGradient
       id="linearGradient15361"
       inkscape:collect="always">
      <stop
         offset="0"
         style="stop-color:#a0892c;stop-opacity:1;"
         id="stop15363" />
      <stop
         offset="1"
         style="stop-color:#a0892c;stop-opacity:0;"
         id="stop15365" />
    </linearGradient>
    <radialGradient
       r="8.390625"
       id="radialGradient16437"
       fx="-472.26831"
       fy="130.0453"
       gradientUnits="userSpaceOnUse"
       inkscape:collect="always"
       cy="130.0453"
       cx="-472.26831"
       xlink:href="#linearGradient15361"
       gradientTransform="matrix(0.8204646,-1.0088771,0.7827177,0.6365418,-184.24672,-427.5285)" />
    <radialGradient
       r="72.859077"
       id="radialGradient16439"
       fx="-204.28514"
       fy="215.49054"
       gradientUnits="userSpaceOnUse"
       inkscape:collect="always"
       cy="215.49054"
       cx="-204.28514"
       xlink:href="#linearGradient15066"
       gradientTransform="matrix(-0.06221376,-0.2071618,0.9193977,-0.2761143,412.26098,12.940398)" />
    <linearGradient
       id="linearGradient15066">
      <stop
         offset="0"
         style="stop-color:#266000;stop-opacity:1;"
         id="stop15068" />
      <stop
         offset="1"
         style="stop-color:#6eb600;stop-opacity:1;"
         id="stop15070" />
    </linearGradient>
    <radialGradient
       r="72.859077"
       id="radialGradient16441"
       fx="-156.24869"
       fy="214.45776"
       gradientUnits="userSpaceOnUse"
       inkscape:collect="always"
       cy="214.45776"
       cx="-156.24869"
       xlink:href="#linearGradient15066"
       gradientTransform="matrix(-0.06221376,-0.2071618,0.9193977,-0.2761143,412.26098,12.940398)" />
    <radialGradient
       r="72.859077"
       id="radialGradient16443"
       fx="-204.28514"
       fy="215.49054"
       gradientUnits="userSpaceOnUse"
       inkscape:collect="always"
       cy="215.49054"
       cx="-204.28514"
       xlink:href="#linearGradient15066"
       gradientTransform="matrix(-0.06221376,-0.2071618,0.9193977,-0.2761143,412.26098,12.940398)" />
    <radialGradient
       r="72.859077"
       id="radialGradient16445"
       fx="-156.24869"
       fy="214.45776"
       gradientUnits="userSpaceOnUse"
       inkscape:collect="always"
       cy="214.45776"
       cx="-156.24869"
       xlink:href="#linearGradient15066"
       gradientTransform="matrix(-0.06221376,-0.2071618,0.9193977,-0.2761143,412.26098,12.940398)" />
    <linearGradient
       id="linearGradient16447"
       gradientUnits="userSpaceOnUse"
       inkscape:collect="always"
       x1="-468.59518"
       x2="-402.48828"
       xlink:href="#linearGradient13836"
       y1="37.146729"
       y2="78.09156" />
    <linearGradient
       id="linearGradient13836"
       inkscape:collect="always">
      <stop
         offset="0"
         style="stop-color:#ffffff;stop-opacity:1;"
         id="stop13838" />
      <stop
         offset="1"
         style="stop-color:#ffffff;stop-opacity:0;"
         id="stop13840" />
    </linearGradient>
    <linearGradient
       inkscape:collect="always"
       xlink:href="#linearGradient13836"
       id="linearGradient4589"
       gradientUnits="userSpaceOnUse"
       gradientTransform="matrix(0.4857078,0,0,0.4857078,456.9277,-135.26417)"
       x1="-559.41553"
       y1="124.66528"
       x2="-545.12939"
       y2="136.34091" />
    <linearGradient
       inkscape:collect="always"
       xlink:href="#linearGradient13836"
       id="linearGradient4591"
       gradientUnits="userSpaceOnUse"
       gradientTransform="matrix(0.4857078,0,0,0.4857078,473.3568,-135.72783)"
       x1="-559.41553"
       y1="124.66528"
       x2="-545.12939"
       y2="136.34091" />
    <linearGradient
       inkscape:collect="always"
       xlink:href="#linearGradient13836"
       id="linearGradient4593"
       gradientUnits="userSpaceOnUse"
       gradientTransform="matrix(0.4857078,0,0,0.4857078,457.18202,-123.49305)"
       x1="-507.12894"
       y1="31.260143"
       x2="-491.39221"
       y2="44.458694" />
    <radialGradient
       inkscape:collect="always"
       xlink:href="#linearGradient11855"
       id="radialGradient4595"
       gradientUnits="userSpaceOnUse"
       gradientTransform="matrix(1.076572,1.0147685,-1.1006848,1.1677246,61.670787,437.22591)"
       cx="-433.47537"
       cy="24.135946"
       fx="-433.47537"
       fy="24.135946"
       r="10.500134" />
    <linearGradient
       id="linearGradient11855">
      <stop
         offset="0"
         style="stop-color:#c0eb14;stop-opacity:1;"
         id="stop11857" />
      <stop
         offset="0.5"
         style="stop-color:#b0c619;stop-opacity:1;"
         id="stop11859" />
      <stop
         offset="1"
         style="stop-color:#31560f;stop-opacity:1;"
         id="stop11861" />
    </linearGradient>
    <linearGradient
       inkscape:collect="always"
       xlink:href="#linearGradient13836"
       id="linearGradient4597"
       gradientUnits="userSpaceOnUse"
       gradientTransform="matrix(0.4857078,0,0,0.4857078,455.8283,-121.93169)"
       x1="-524.38861"
       y1="17.046322"
       x2="-512.71295"
       y2="27.199053" />
    <linearGradient
       inkscape:collect="always"
       xlink:href="#linearGradient13836"
       id="linearGradient4599"
       gradientUnits="userSpaceOnUse"
       gradientTransform="matrix(0.4857078,0,0,0.4857078,455.8283,-122.9021)"
       x1="-559.41553"
       y1="124.66528"
       x2="-545.12939"
       y2="136.34091" />
    <linearGradient
       inkscape:collect="always"
       xlink:href="#linearGradient13836"
       id="linearGradient4601"
       gradientUnits="userSpaceOnUse"
       gradientTransform="matrix(0.4857078,0,0,0.4857078,455.8283,-122.9021)"
       x1="-524.89624"
       y1="56.641975"
       x2="-516.39948"
       y2="65.270378" />
    <linearGradient
       inkscape:collect="always"
       xlink:href="#linearGradient13836"
       id="linearGradient4603"
       gradientUnits="userSpaceOnUse"
       gradientTransform="matrix(0.4857078,0,0,0.4857078,455.8283,-123.39523)"
       x1="-532.00311"
       y1="35.321239"
       x2="-521.34277"
       y2="45.473969" />
    <linearGradient
       inkscape:collect="always"
       xlink:href="#linearGradient13836"
       id="linearGradient4605"
       gradientUnits="userSpaceOnUse"
       gradientTransform="matrix(0.4857078,0,0,0.4857078,455.8283,-122.9021)"
       x1="-569.06061"
       y1="77.45507"
       x2="-563.52911"
       y2="82.712776" />
    <linearGradient
       inkscape:collect="always"
       xlink:href="#linearGradient13836"
       id="linearGradient4607"
       gradientUnits="userSpaceOnUse"
       gradientTransform="matrix(0.4857078,0,0,0.4857078,455.8283,-122.9021)"
       x1="-541.64825"
       y1="81.00853"
       x2="-532.51074"
       y2="87.84185" />
    <linearGradient
       inkscape:collect="always"
       xlink:href="#linearGradient13836"
       id="linearGradient4609"
       gradientUnits="userSpaceOnUse"
       gradientTransform="matrix(0.4857078,0,0,0.4857078,455.8283,-122.9021)"
       x1="-571.59875"
       y1="44.966331"
       x2="-559.92316"
       y2="55.626701" />
    <linearGradient
       inkscape:collect="always"
       xlink:href="#linearGradient13836"
       id="linearGradient4611"
       gradientUnits="userSpaceOnUse"
       gradientTransform="matrix(0.4857078,0,0,0.4857078,453.26316,-120.2216)"
       x1="-554.8468"
       y1="17.553957"
       x2="-549.18329"
       y2="26.337288" />
    <linearGradient
       inkscape:collect="always"
       xlink:href="#linearGradient13836"
       id="linearGradient4613"
       gradientUnits="userSpaceOnUse"
       gradientTransform="matrix(0.4857078,0,0,0.4857078,455.58174,-123.39523)"
       x1="-551.80096"
       y1="49.535061"
       x2="-541.14056"
       y2="60.195431" />
    <radialGradient
       r="102.07972"
       id="radialGradient15394"
       fx="88.817322"
       fy="419.30472"
       gradientUnits="userSpaceOnUse"
       inkscape:collect="always"
       cy="419.30472"
       cx="88.817322"
       xlink:href="#linearGradient3242"
       gradientTransform="matrix(0.4559023,3.2463845e-8,-3.073225e-8,0.4315849,431.56764,-106.01371)" />
    <linearGradient
       id="linearGradient3242">
      <stop
         offset="0"
         style="stop-color:#ff2b70;stop-opacity:1;"
         id="stop3244" />
      <stop
         offset="0.74050635"
         style="stop-color:#dc0000;stop-opacity:1;"
         id="stop3252" />
      <stop
         offset="0.87025321"
         style="stop-color:#c00000;stop-opacity:1;"
         id="stop14021" />
      <stop
         offset="1"
         style="stop-color:#9a0000;stop-opacity:1;"
         id="stop3246" />
    </linearGradient>
    <radialGradient
       r="11.382951"
       id="radialGradient15391"
       fx="-122.19651"
       fy="334.16678"
       gradientUnits="userSpaceOnUse"
       inkscape:collect="always"
       cy="334.16678"
       cx="-122.19651"
       xlink:href="#linearGradient5237"
       gradientTransform="matrix(0.5393134,0.03969971,-0.02024055,0.3530388,561.47449,-63.497119)" />
    <linearGradient
       id="linearGradient5237">
      <stop
         offset="0"
         style="stop-color:#000000;stop-opacity:1"
         id="stop5239" />
      <stop
         offset="0.70886075"
         style="stop-color:#250800;stop-opacity:0.49803922;"
         id="stop5245" />
      <stop
         offset="1"
         style="stop-color:#4a1001;stop-opacity:0;"
         id="stop5241" />
    </linearGradient>
    <radialGradient
       r="72.859077"
       id="radialGradient15387"
       fx="-204.28514"
       fy="215.49054"
       gradientUnits="userSpaceOnUse"
       inkscape:collect="always"
       cy="215.49054"
       cx="-204.28514"
       xlink:href="#linearGradient15066"
       gradientTransform="matrix(-0.06221376,-0.2071618,0.9193977,-0.2761143,262.83866,23.099422)" />
    <radialGradient
       r="72.859077"
       id="radialGradient15384"
       fx="-156.24869"
       fy="214.45776"
       gradientUnits="userSpaceOnUse"
       inkscape:collect="always"
       cy="214.45776"
       cx="-156.24869"
       xlink:href="#linearGradient15066"
       gradientTransform="matrix(-0.06221376,-0.2071618,0.9193977,-0.2761143,262.83866,23.099422)" />
    <linearGradient
       id="linearGradient15380"
       gradientUnits="userSpaceOnUse"
       inkscape:collect="always"
       x1="147.50195"
       x2="199.32068"
       xlink:href="#linearGradient13836"
       gradientTransform="matrix(1.0355798,0,0,1.0355798,285.48128,-27.9692)"
       y1="67.338982"
       y2="126.74199" />
    <linearGradient
       id="linearGradient6685"
       gradientUnits="userSpaceOnUse"
       inkscape:collect="always"
       x1="341.27148"
       x2="353.23926"
       xlink:href="#linearGradient15066"
       y1="31.734127"
       y2="13.778823" />
    <radialGradient
       r="54.316132"
       id="radialGradient6682"
       fx="264.24023"
       fy="59.389671"
       gradientUnits="userSpaceOnUse"
       inkscape:collect="always"
       cy="59.389671"
       cx="264.24023"
       xlink:href="#linearGradient5438"
       gradientTransform="matrix(1.6601673,-0.9579825,0.5303842,0.9191376,-156.17595,263.33595)" />
    <linearGradient
       id="linearGradient5438">
      <stop
         offset="0"
         style="stop-color:#ff3905;stop-opacity:1;"
         id="stop5440" />
      <stop
         offset="0.5"
         style="stop-color:#dd1c02;stop-opacity:1;"
         id="stop7656" />
      <stop
         offset="1"
         style="stop-color:#6c0000;stop-opacity:1;"
         id="stop5442" />
    </linearGradient>
    <linearGradient
       id="linearGradient6657"
       gradientUnits="userSpaceOnUse"
       inkscape:collect="always"
       x1="230.85255"
       x2="278.40942"
       xlink:href="#linearGradient13836"
       gradientTransform="translate(60.740183,4.9082976)"
       y1="15.030869"
       y2="91.397896" />
  </defs>
  <sodipodi:namedview
     id="base"
     pagecolor="#ffffff"
     bordercolor="#666666"
     borderopacity="1.0"
     inkscape:pageopacity="0.0"
     inkscape:pageshadow="2"
     inkscape:zoom="1.4"
     inkscape:cx="229.57288"
     inkscape:cy="787.46774"
     inkscape:document-units="px"
     inkscape:current-layer="g15411"
     showgrid="false"
     inkscape:window-width="672"
     inkscape:window-height="605"
     inkscape:window-x="1444"
     inkscape:window-y="292"
     inkscape:window-maximized="0" />
  <metadata
     id="metadata4536">
    <rdf:RDF>
      <cc:Work
         rdf:about="">
        <dc:format>image/svg+xml</dc:format>
        <dc:type
           rdf:resource="http://purl.org/dc/dcmitype/StillImage" />
        <dc:title />
      </cc:Work>
    </rdf:RDF>
  </metadata>
  <g
     inkscape:label="Livello 1"
     inkscape:groupmode="layer"
     id="layer1">
    <g
       id="g16419"
       transform="matrix(0.4855472,0,0,0.4855472,404.31769,196.95382)"
       inkscape:export-xdpi="28.4"
       inkscape:export-ydpi="28.4">
      <path
         inkscape:connector-curvature="0"
         d="m -829.77655,-71.519452 c -2.79598,77.1477414 -47.6358,79.9967092 -71.33208,125.543695 -2.54702,4.895683 -5.93328,2.327477 -7.54232,-0.650922 -19.71362,-36.490763 -72.88313,-82.606107 -72.88313,-158.084111 0,-80.1416 41.57237,-105.81565 74.10301,-139.12239 5.52219,-5.65394 13.13443,-16.37705 16.22668,-6.27118 20.52836,67.08923 66.86885,93.87327 61.42784,178.584908 z"
         style="color:#000000;display:inline;overflow:visible;visibility:visible;fill:url(#radialGradient16433);fill-opacity:1;fill-rule:evenodd;stroke:#000000;stroke-width:1.75672126;stroke-linecap:butt;stroke-linejoin:miter;stroke-miterlimit:4;stroke-dasharray:none;stroke-dashoffset:0;stroke-opacity:1;marker:none;marker-start:none;marker-mid:none;marker-end:none;enable-background:accumulate"
         id="path15337"
         sodipodi:nodetypes="csssssc"
         transform="matrix(0.6206262,0.3141338,-0.3019221,0.4008379,108.31171,392.77861)" />
      <path
         inkscape:connector-curvature="0"
         style="color:#000000;display:inline;overflow:visible;visibility:visible;fill:url(#radialGradient16435);fill-opacity:1;fill-rule:evenodd;stroke:none;stroke-width:0.5;stroke-linecap:butt;stroke-linejoin:miter;stroke-miterlimit:4;stroke-dashoffset:0;stroke-opacity:1;marker:none;marker-start:none;marker-mid:none;marker-end:none;enable-background:accumulate"
         id="path15359"
         d="m -373.875,9.1875 c -2.33038,0.06366 -5.12876,0.5799222 -7.375,0.8125 -3.52525,0.365006 -7.09245,0.636951 -10.6875,0.90625 L -370.75,37.8125 c -0.52931,-8.03043 -0.53524,-16.359573 1.46875,-25.25 0.63678,-2.8249852 -1.59755,-3.4568491 -4.59375,-3.375 z" />
      <path
         inkscape:connector-curvature="0"
         style="color:#000000;display:inline;overflow:visible;visibility:visible;fill:url(#radialGradient16437);fill-opacity:1;fill-rule:evenodd;stroke:none;stroke-width:0.5;stroke-linecap:butt;stroke-linejoin:miter;stroke-miterlimit:4;stroke-dashoffset:0;stroke-opacity:1;marker:none;marker-start:none;marker-mid:none;marker-end:none;enable-background:accumulate"
         id="path15350"
         d="m -474.09375,114.78125 c 1.17946,5.10546 2.10244,9.84197 2.34375,13.96875 0.0994,1.69931 1.44115,3.78727 4.5,2.625 3.31042,-1.25785 6.62696,-2.21753 9.9375,-2.9375 -3.58339,-3.52235 -8.92862,-8.09232 -16.78125,-13.65625 z" />
      <g
         transform="matrix(-0.2360086,-0.4876962,-0.4876962,0.2360086,-225.677,334.04667)"
         id="g15406">
        <path
           inkscape:connector-curvature="0"
           style="color:#000000;display:inline;overflow:visible;visibility:visible;fill:url(#radialGradient16439);fill-opacity:1;fill-rule:evenodd;stroke:#000000;stroke-width:1.06640482;stroke-linecap:butt;stroke-linejoin:miter;stroke-miterlimit:4;stroke-dasharray:none;stroke-dashoffset:0;stroke-opacity:1;marker:none;marker-start:none;marker-mid:none;marker-end:none;enable-background:accumulate"
           id="path15396"
           d="m 623.41872,-30.263383 c -0.25708,0.03462 -0.51632,0.08796 -0.76469,0.148693 0.24844,-0.06075 0.5089,-0.110989 0.76469,-0.148693 z m 22.2823,2.336561 c 0.11707,0.0433 0.20805,0.07565 0.27614,0.08497 -0.0638,-0.0087 -0.16905,-0.04653 -0.27614,-0.08497 z m 0.27614,0.08497 c 0.5545,0.07587 1.3241,0.217803 2.03918,0.446068 -0.71765,-0.229812 -1.48468,-0.370193 -2.03918,-0.446068 z m 4.43947,1.975458 c 0.3191,0.192831 0.69964,0.382308 1.10455,0.573519 -0.40477,-0.190205 -0.78554,-0.381443 -1.10455,-0.573519 z m 1.10455,0.573519 c 0.80981,0.382413 1.684,0.739563 2.18787,0.955864 -0.50387,-0.216301 -1.37833,-0.575464 -2.18787,-0.955864 z m 2.18787,0.955864 c 0.0376,0.01612 0.069,0.05014 0.1062,0.08497 -0.0402,-0.03947 -0.0655,-0.0675 -0.1062,-0.08497 z m 0.1062,0.08497 c 0.11158,0.104489 0.23434,0.278898 0.33987,0.509796 -0.10254,-0.225753 -0.23151,-0.40355 -0.33987,-0.509796 z m -2.31531,5.35285 c -5.10355,0.02018 -15.52969,0.673039 -30.05668,4.694363 -21.13017,5.8492013 -51.66401,24.229338 -55.48271,25.064937 -2.85156,0.623974 -6.40889,2.688547 -8.02928,3.696011 2.20339,-0.538781 4.42392,-1.075576 6.62734,-1.614349 1.61548,-0.395032 4.2984,-1.539832 6.66982,-1.635595 1.88614,-0.07615 3.96795,0.198476 5.73519,-0.233656 2.61895,-0.640397 4.75097,-1.1601883 7.47699,-1.8267653 3.07487,-0.751888 -0.007,1.3068633 3.95093,1.1470393 1.05454,-0.04258 4.78271,-0.232549 5.39533,-0.382344 1.95859,-0.4789263 2.37668,1.055593 2.69766,0.977105 1.97401,-0.482687 4.08277,-1.4920833 6.05382,-1.6993183 1.11452,-0.11719 2.28076,0.60283 3.35615,0.339863 2.02462,-0.495063 1.75902,1.9560373 3.90844,1.8692523 1.62027,-0.06543 4.26961,-1.27396 5.14043,-1.019593 0.20329,0.05939 1.82319,1.431733 3.33491,1.062075 2.81052,-0.687246 3.1096,-0.05423 5.8414,-0.722212 1.58266,-0.387 1.71192,-0.171802 0.31863,0.849659 2.1271,-0.918111 3.98493,-6.09e-4 6.05381,-0.998348 0.25468,-0.122828 4.47593,-1.2130003 5.96886,-1.9329743 2.5052,-1.208159 1.93376,3.1530793 6.47865,-3.696016 1.06523,-1.605305 0.45671,-0.915026 3.90843,-3.547324 4.35923,-3.3243671 0.2895,0.909318 0.33986,0.8709 0.0798,-0.060848 3.65037,-3.17584857 4.4607,-4.3969825 1.40135,-2.1118196 1.34,0.1742176 1.44443,-0.8071765 0.13882,-1.3048947 1.58023,-2.1384567 1.86924,-3.5048411 0.19635,-0.9283124 1.22992,-2.190157 1.97546,-3.313671 0.82426,-1.2421556 0.75442,-2.8080626 -0.23365,-3.6960166 0.0545,-0.512025 0.1204,-2.762802 -0.0637,-3.249943 -0.23184,-0.613334 -0.46915,-1.234686 -0.70098,-1.84801 l -0.89214,-0.339863 c 0,0 -1.22753,-0.115382 -3.54732,-0.106206 z m -58.96632,3.398636 c -0.48873,0.308297 -0.88994,0.681478 -1.27449,1.06207 0.38135,-0.377004 0.79054,-0.756556 1.27449,-1.06207 z m -1.82677,1.614349 c -0.35044,0.38234 -0.69141,0.770891 -1.01959,1.104557 0.33174,-0.336687 0.66548,-0.717525 1.01959,-1.104557 z m -1.01959,1.104557 c -0.32817,0.333666 -0.63897,0.623421 -0.99835,0.828418 0.3553,-0.202672 0.67406,-0.499288 0.99835,-0.828418 z m -0.99835,0.828418 c -0.34164,0.194891 -0.77291,0.537623 -1.232,0.955864 0.46029,-0.417481 0.89036,-0.760973 1.232,-0.955864 z m -1.232,0.955864 c -0.23292,0.212201 -0.46055,0.43746 -0.70097,0.67973 0.2377,-0.237987 0.47082,-0.470989 0.70097,-0.67973 z m -0.70097,0.67973 c -0.47039,0.4740054 -0.96816,0.9809828 -1.3807,1.465661 0.41709,-0.4873189 0.90532,-0.9896963 1.3807,-1.465661 z m -4.46071,5.2466416 c -0.62393,0.4927206 -1.33518,0.9492104 -1.9967,1.3169727 0.66089,-0.3683122 1.37421,-0.8229939 1.9967,-1.3169727 z m -3.16498,1.9754575 c -0.17882,0.1307233 -0.35509,0.2831824 -0.53103,0.4460729 0.17243,-0.1583184 0.35584,-0.3184346 0.53103,-0.4460729 z m -4.05712,3.86594463 c -0.28354,0.25996897 -0.49109,0.52620397 -0.65848,0.78593597 0.16662,-0.260409 0.3753,-0.525646 0.65848,-0.78593597 z m -4.80057,4.37574597 c -0.35275,0.265315 -0.67317,0.543962 -0.91339,0.807173 0.2403,-0.263504 0.56051,-0.54141 0.91339,-0.807173 z m -1.35945,1.571866 c -0.0498,0.235159 -0.12525,0.419075 -0.21242,0.57352 0.0876,-0.154564 0.16267,-0.338361 0.21242,-0.57352 z m -0.36111,0.785936 c -0.15444,0.183362 -0.34423,0.294987 -0.55227,0.382346 0.20947,-0.087735 0.39689,-0.198746 0.55227,-0.382346 z" />
        <path
           inkscape:connector-curvature="0"
           style="fill:url(#radialGradient16441);fill-opacity:1;fill-rule:evenodd;stroke:#000000;stroke-width:1.06640482;stroke-linecap:butt;stroke-linejoin:miter;stroke-miterlimit:4;stroke-dasharray:none;stroke-opacity:1"
           id="path15398"
           d="m 624.43831,-30.348347 c -0.59774,0.011 -1.20499,0.09201 -1.78428,0.233657 -2.03416,0.497397 -4.11797,1.225967 -6.05383,1.699318 -2.08653,0.510217 -3.37872,1.125088 -5.09795,1.954211 -1.59355,0.768502 -3.47279,1.36092 -5.37409,2.017943 -1.91518,0.661822 -6.75178,4.22677 -6.83976,4.24829 -2.63193,0.643574 -3.51888,3.233279 -5.96885,4.290777 -2.22143,0.958854 -3.19313,3.130905 -4.63064,3.950915 -1.36658,0.77956 -4.15417,3.9031542 -4.58815,4.8642965 -0.57763,1.2792683 -2.77811,2.8735703 -4.43947,3.6747746 -1.4291,0.6891991 -2.73688,2.87898123 -4.0996,3.80222163 -1.44177,0.97680397 -1.54617,2.29646297 -1.93298,2.59145897 -0.93592,0.713727 -4.44267,2.448208 -4.7156,3.738498 -0.39792,1.88129 -2.13417,0.836093 -3.18622,2.421531 -0.12482,0.188094 -1.5916,2.0833613 -3.80223,3.0375273 -1.47766,0.637811 -5.66162,2.792639 -4.05712,2.400289 0.0133,-0.0033 0.0292,0.0033 0.0425,0 0.008,-0.002 0.013,-0.01922 0.0213,-0.02125 1.62039,-1.007464 5.17772,-3.072037 8.02928,-3.696011 3.8187,-0.835599 34.35254,-19.2157357 55.48271,-25.064937 21.13017,-5.849201 33.604,-4.588148 33.604,-4.588157 l 0.89214,0.339863 c -0.28226,-0.746786 -0.56738,-1.504811 -0.84966,-2.251592 -0.21655,-0.572897 -0.77969,-3.374314 -1.38069,-3.632293 -1.00774,-0.432612 -3.49287,-1.410248 -3.9934,-2.081662 -0.64739,-0.868456 -2.62948,-1.271434 -3.73849,-1.423179 -0.51049,-0.06985 -2.6148,-1.255606 -3.05877,-1.147039 -1.43821,0.351675 -1.92937,-0.128197 -3.52609,-0.06373 -1.33889,0.05407 -2.23832,-0.415385 -3.24994,-0.849659 -1.90477,-0.817667 -2.84497,0.105496 -5.01299,-0.19117 -0.76586,-0.104787 -3.10411,0.342091 -4.05713,0.06372 -0.67234,-0.196401 -1.63771,-0.336956 -2.63393,-0.318621 z" />
        <path
           inkscape:connector-curvature="0"
           style="fill:none;fill-opacity:1;fill-rule:evenodd;stroke:none;stroke-width:1px;stroke-linecap:butt;stroke-linejoin:miter;stroke-opacity:1"
           id="path15400"
           d="m 623.22432,-36.802539 c 0,0 23.62051,7.338319 27.73063,11.448424 3.56173,3.561728 5.08819,6.360234 5.08819,6.360234 -8.24873,3.133677 3.28062,8.888967 -7.63229,35.871737 M 554.53377,8.9911587 c 1.95716,-1.879037 10.76089,0.103038 9.66756,2.2896893 -0.008,2.757992 -0.26849,5.579327 -5.597,9.667556 M 558.34992,6.4470607 c 0.92421,-0.887322 4.77722,-0.455309 7.1862,0.277338 2.37851,0.70218 4.28384,1.841937 3.76754,2.874519 -0.46542,2.7788673 -0.0713,5.7631973 -5.71009,11.1233493 M 562.67488,2.6309207 c 0.86985,-0.835127 5.88566,0.00314 8.3947,0.934458 2.44811,0.870393 4.33115,2.10772 3.84522,3.079557 -0.92326,2.799737 0.12585,5.9470683 -5.82315,12.5791383 m -2.85504,-19.64605837 c 0.81548,-0.78293773 6.99408,0.4615781 9.60319,1.59157807 2.51771,1.038596 4.37846,2.373496 3.92291,3.2846 -1.3811,2.820607 0.32302,6.1309373 -5.93622,14.0349263 m -3.77374,-22.4728414 c 0.76111,-0.7307434 8.10252,0.9200371 10.8117,2.2486994 2.58732,1.20680883 4.42577,2.63928273 4.0006,3.4896417 -1.83895,2.841483 0.52019,6.314808 -6.0493,15.4907163 M 574.1233,-7.7998609 c 0.70676,-0.6785357 9.21094,1.3784862 12.02019,2.9058286 2.65691,1.3750118 4.47309,2.9050644 4.07829,3.6946888 -2.29679,2.8623442 0.71736,6.4986732 -6.16237,16.9464995 m -6.37438,-26.854349 c 0.65238,-0.626342 10.31937,1.8369341 13.22868,3.5629536 2.72653,1.5432241 4.52041,3.1708418 4.15596,3.8997263 -2.75461,2.88321993 0.91455,6.6825398 -6.27543,18.4022831 m -8.05629,-28.917864 c 0.59802,-0.574151 11.4278,2.295378 14.43718,4.2200739 2.79612,1.7114281 4.56772,3.4366233 4.23364,4.104769 -3.21246,2.9040941 1.11173,6.8664048 -6.3885,19.8580771 m -9.22941,-31.235839 c 0.54365,-0.521953 12.53623,2.753836 15.64567,4.877194 2.86572,1.879641 4.61503,3.7024096 4.31134,4.3098165 -3.67031,2.9249599 1.30888,7.05027493 -6.50158,21.3138565 m -9.63929,-33.04497 c 0.48929,-0.469757 13.64466,3.212285 16.85417,5.534319 2.93532,2.047854 4.66235,3.968192 4.38901,4.5148545 -4.12815,2.9458351 1.50608,7.2341452 -6.61464,22.7696455 m -11.06681,-35.617315 c 0.43493,-0.41756 14.75309,3.670733 18.06267,6.191443 3.00492,2.216062 4.70966,4.233973 4.4667,4.719897 -4.58599,2.9667096 1.70324,7.4180147 -6.72771,24.225438 m -11.73111,-38.189698 c 0.38056,-0.365365 15.86152,4.129182 19.27116,6.848573 3.07453,2.384261 4.75698,4.499752 4.5444,4.924931 -5.04384,2.98758 1.9004,7.6018937 -6.84079,25.681221 m -12.64981,-39.489997 c 0.3262,-0.313175 16.96994,4.587626 20.47966,7.505684 3.14412,2.552474 4.80429,4.765543 4.62207,5.129979 -5.50167,3.008454 2.09759,7.7857588 -6.95386,27.137014 m -14.32854,-42.059162 c 0.277,-0.260944 18.42246,5.045311 22.10095,8.161564 3.2749,2.720283 4.94397,5.030564 4.78922,5.33421 -6.07295,3.028872 2.33843,7.9684211 -7.20143,28.588465 m -15.62138,-43.868302 c 0.21747,-0.208782 19.18681,5.504523 22.89665,8.81993 3.28332,2.888894 4.89893,5.297105 4.77745,5.540067 -6.41737,3.050186 2.49192,8.1534903 -7.18001,30.048582 m -16.67794,-46.189452 c 0.16309,-0.156583 20.29523,5.962973 24.10515,9.477059 3.35293,3.057098 4.94623,5.562888 4.85512,5.745106 -6.87519,3.071061 2.68911,8.3373562 -7.29306,31.504371 m -17.59666,-47.744165 c 0.10873,-0.104388 21.40366,6.421426 25.31364,10.134175 3.42252,3.225311 4.99355,5.828673 4.93281,5.950152 -7.33303,3.091937 2.88629,8.5212271 -7.40613,32.960161 m -19.02418,-50.062126 c 0.0544,-0.05219 22.51208,6.87987 26.52214,10.791299 3.49213,3.393524 5.04087,6.094452 5.01049,6.155191 -7.79088,3.112807 3.08346,8.7051008 -7.51921,34.415949" />
      </g>
      <g
         id="g15424"
         transform="matrix(0.2935784,0.1256514,-0.01594854,0.3439729,-561.48936,-67.835189)">
        <path
           inkscape:connector-curvature="0"
           style="color:#000000;display:inline;overflow:visible;visibility:visible;fill:url(#radialGradient16443);fill-opacity:1;fill-rule:evenodd;stroke:#000000;stroke-width:1.06640482;stroke-linecap:butt;stroke-linejoin:miter;stroke-miterlimit:4;stroke-dasharray:none;stroke-dashoffset:0;stroke-opacity:1;marker:none;marker-start:none;marker-mid:none;marker-end:none;enable-background:accumulate"
           d="m 623.41872,-30.263383 c -0.25708,0.03462 -0.51632,0.08796 -0.76469,0.148693 0.24844,-0.06075 0.5089,-0.110989 0.76469,-0.148693 z m 22.2823,2.336561 c 0.11707,0.0433 0.20805,0.07565 0.27614,0.08497 -0.0638,-0.0087 -0.16905,-0.04653 -0.27614,-0.08497 z m 0.27614,0.08497 c 0.5545,0.07587 1.3241,0.217803 2.03918,0.446068 -0.71765,-0.229812 -1.48468,-0.370193 -2.03918,-0.446068 z m 4.43947,1.975458 c 0.3191,0.192831 0.69964,0.382308 1.10455,0.573519 -0.40477,-0.190205 -0.78554,-0.381443 -1.10455,-0.573519 z m 1.10455,0.573519 c 0.80981,0.382413 1.684,0.739563 2.18787,0.955864 -0.50387,-0.216301 -1.37833,-0.575464 -2.18787,-0.955864 z m 2.18787,0.955864 c 0.0376,0.01612 0.069,0.05014 0.1062,0.08497 -0.0402,-0.03947 -0.0655,-0.0675 -0.1062,-0.08497 z m 0.1062,0.08497 c 0.11158,0.104489 0.23434,0.278898 0.33987,0.509796 -0.10254,-0.225753 -0.23151,-0.40355 -0.33987,-0.509796 z m -2.31531,5.35285 c -5.10355,0.02018 -15.52969,0.673039 -30.05668,4.694363 -21.13017,5.8492013 -51.66401,24.229338 -55.48271,25.064937 -2.85156,0.623974 -6.40889,2.688547 -8.02928,3.696011 2.20339,-0.538781 4.42392,-1.075576 6.62734,-1.614349 1.61548,-0.395032 4.2984,-1.539832 6.66982,-1.635595 1.88614,-0.07615 3.96795,0.198476 5.73519,-0.233656 2.61895,-0.640397 4.75097,-1.1601883 7.47699,-1.8267653 3.07487,-0.751888 -0.007,1.3068633 3.95093,1.1470393 1.05454,-0.04258 4.78271,-0.232549 5.39533,-0.382344 1.95859,-0.4789263 2.37668,1.055593 2.69766,0.977105 1.97401,-0.482687 4.08277,-1.4920833 6.05382,-1.6993183 1.11452,-0.11719 2.28076,0.60283 3.35615,0.339863 2.02462,-0.495063 1.75902,1.9560373 3.90844,1.8692523 1.62027,-0.06543 4.26961,-1.27396 5.14043,-1.019593 0.20329,0.05939 1.82319,1.431733 3.33491,1.062075 2.81052,-0.687246 3.1096,-0.05423 5.8414,-0.722212 1.58266,-0.387 1.71192,-0.171802 0.31863,0.849659 2.1271,-0.918111 3.98493,-6.09e-4 6.05381,-0.998348 0.25468,-0.122828 4.47593,-1.2130003 5.96886,-1.9329743 2.5052,-1.208159 1.93376,3.1530793 6.47865,-3.696016 1.06523,-1.605305 0.45671,-0.915026 3.90843,-3.547324 4.35923,-3.3243671 0.2895,0.909318 0.33986,0.8709 0.0798,-0.060848 3.65037,-3.17584857 4.4607,-4.3969825 1.40135,-2.1118196 1.34,0.1742176 1.44443,-0.8071765 0.13882,-1.3048947 1.58023,-2.1384567 1.86924,-3.5048411 0.19635,-0.9283124 1.22992,-2.190157 1.97546,-3.313671 0.82426,-1.2421556 0.75442,-2.8080626 -0.23365,-3.6960166 0.0545,-0.512025 0.1204,-2.762802 -0.0637,-3.249943 -0.23184,-0.613334 -0.46915,-1.234686 -0.70098,-1.84801 l -0.89214,-0.339863 c 0,0 -1.22753,-0.115382 -3.54732,-0.106206 z m -58.96632,3.398636 c -0.48873,0.308297 -0.88994,0.681478 -1.27449,1.06207 0.38135,-0.377004 0.79054,-0.756556 1.27449,-1.06207 z m -1.82677,1.614349 c -0.35044,0.38234 -0.69141,0.770891 -1.01959,1.104557 0.33174,-0.336687 0.66548,-0.717525 1.01959,-1.104557 z m -1.01959,1.104557 c -0.32817,0.333666 -0.63897,0.623421 -0.99835,0.828418 0.3553,-0.202672 0.67406,-0.499288 0.99835,-0.828418 z m -0.99835,0.828418 c -0.34164,0.194891 -0.77291,0.537623 -1.232,0.955864 0.46029,-0.417481 0.89036,-0.760973 1.232,-0.955864 z m -1.232,0.955864 c -0.23292,0.212201 -0.46055,0.43746 -0.70097,0.67973 0.2377,-0.237987 0.47082,-0.470989 0.70097,-0.67973 z m -0.70097,0.67973 c -0.47039,0.4740054 -0.96816,0.9809828 -1.3807,1.465661 0.41709,-0.4873189 0.90532,-0.9896963 1.3807,-1.465661 z m -4.46071,5.2466416 c -0.62393,0.4927206 -1.33518,0.9492104 -1.9967,1.3169727 0.66089,-0.3683122 1.37421,-0.8229939 1.9967,-1.3169727 z m -3.16498,1.9754575 c -0.17882,0.1307233 -0.35509,0.2831824 -0.53103,0.4460729 0.17243,-0.1583184 0.35584,-0.3184346 0.53103,-0.4460729 z m -4.05712,3.86594463 c -0.28354,0.25996897 -0.49109,0.52620397 -0.65848,0.78593597 0.16662,-0.260409 0.3753,-0.525646 0.65848,-0.78593597 z m -4.80057,4.37574597 c -0.35275,0.265315 -0.67317,0.543962 -0.91339,0.807173 0.2403,-0.263504 0.56051,-0.54141 0.91339,-0.807173 z m -1.35945,1.571866 c -0.0498,0.235159 -0.12525,0.419075 -0.21242,0.57352 0.0876,-0.154564 0.16267,-0.338361 0.21242,-0.57352 z m -0.36111,0.785936 c -0.15444,0.183362 -0.34423,0.294987 -0.55227,0.382346 0.20947,-0.087735 0.39689,-0.198746 0.55227,-0.382346 z"
           id="path15426" />
        <path
           inkscape:connector-curvature="0"
           style="fill:url(#radialGradient16445);fill-opacity:1;fill-rule:evenodd;stroke:#000000;stroke-width:1.06640482;stroke-linecap:butt;stroke-linejoin:miter;stroke-miterlimit:4;stroke-dasharray:none;stroke-opacity:1"
           d="m 624.43831,-30.348347 c -0.59774,0.011 -1.20499,0.09201 -1.78428,0.233657 -2.03416,0.497397 -4.11797,1.225967 -6.05383,1.699318 -2.08653,0.510217 -3.37872,1.125088 -5.09795,1.954211 -1.59355,0.768502 -3.47279,1.36092 -5.37409,2.017943 -1.91518,0.661822 -6.75178,4.22677 -6.83976,4.24829 -2.63193,0.643574 -3.51888,3.233279 -5.96885,4.290777 -2.22143,0.958854 -3.19313,3.130905 -4.63064,3.950915 -1.36658,0.77956 -4.15417,3.9031542 -4.58815,4.8642965 -0.57763,1.2792683 -2.77811,2.8735703 -4.43947,3.6747746 -1.4291,0.6891991 -2.73688,2.87898123 -4.0996,3.80222163 -1.44177,0.97680397 -1.54617,2.29646297 -1.93298,2.59145897 -0.93592,0.713727 -4.44267,2.448208 -4.7156,3.738498 -0.39792,1.88129 -2.13417,0.836093 -3.18622,2.421531 -0.12482,0.188094 -1.5916,2.0833613 -3.80223,3.0375273 -1.47766,0.637811 -5.66162,2.792639 -4.05712,2.400289 0.0133,-0.0033 0.0292,0.0033 0.0425,0 0.008,-0.002 0.013,-0.01922 0.0213,-0.02125 1.62039,-1.007464 5.17772,-3.072037 8.02928,-3.696011 3.8187,-0.835599 34.35254,-19.2157357 55.48271,-25.064937 21.13017,-5.849201 33.604,-4.588148 33.604,-4.588157 l 0.89214,0.339863 c -0.28226,-0.746786 -0.56738,-1.504811 -0.84966,-2.251592 -0.21655,-0.572897 -0.77969,-3.374314 -1.38069,-3.632293 -1.00774,-0.432612 -3.49287,-1.410248 -3.9934,-2.081662 -0.64739,-0.868456 -2.62948,-1.271434 -3.73849,-1.423179 -0.51049,-0.06985 -2.6148,-1.255606 -3.05877,-1.147039 -1.43821,0.351675 -1.92937,-0.128197 -3.52609,-0.06373 -1.33889,0.05407 -2.23832,-0.415385 -3.24994,-0.849659 -1.90477,-0.817667 -2.84497,0.105496 -5.01299,-0.19117 -0.76586,-0.104787 -3.10411,0.342091 -4.05713,0.06372 -0.67234,-0.196401 -1.63771,-0.336956 -2.63393,-0.318621 z"
           id="path15428" />
        <path
           inkscape:connector-curvature="0"
           style="fill:none;fill-opacity:1;fill-rule:evenodd;stroke:none;stroke-width:1px;stroke-linecap:butt;stroke-linejoin:miter;stroke-opacity:1"
           d="m 623.22432,-36.802539 c 0,0 23.62051,7.338319 27.73063,11.448424 3.56173,3.561728 5.08819,6.360234 5.08819,6.360234 -8.24873,3.133677 3.28062,8.888967 -7.63229,35.871737 M 554.53377,8.9911587 c 1.95716,-1.879037 10.76089,0.103038 9.66756,2.2896893 -0.008,2.757992 -0.26849,5.579327 -5.597,9.667556 M 558.34992,6.4470607 c 0.92421,-0.887322 4.77722,-0.455309 7.1862,0.277338 2.37851,0.70218 4.28384,1.841937 3.76754,2.874519 -0.46542,2.7788673 -0.0713,5.7631973 -5.71009,11.1233493 M 562.67488,2.6309207 c 0.86985,-0.835127 5.88566,0.00314 8.3947,0.934458 2.44811,0.870393 4.33115,2.10772 3.84522,3.079557 -0.92326,2.799737 0.12585,5.9470683 -5.82315,12.5791383 m -2.85504,-19.64605837 c 0.81548,-0.78293773 6.99408,0.4615781 9.60319,1.59157807 2.51771,1.038596 4.37846,2.373496 3.92291,3.2846 -1.3811,2.820607 0.32302,6.1309373 -5.93622,14.0349263 m -3.77374,-22.4728414 c 0.76111,-0.7307434 8.10252,0.9200371 10.8117,2.2486994 2.58732,1.20680883 4.42577,2.63928273 4.0006,3.4896417 -1.83895,2.841483 0.52019,6.314808 -6.0493,15.4907163 M 574.1233,-7.7998609 c 0.70676,-0.6785357 9.21094,1.3784862 12.02019,2.9058286 2.65691,1.3750118 4.47309,2.9050644 4.07829,3.6946888 -2.29679,2.8623442 0.71736,6.4986732 -6.16237,16.9464995 m -6.37438,-26.854349 c 0.65238,-0.626342 10.31937,1.8369341 13.22868,3.5629536 2.72653,1.5432241 4.52041,3.1708418 4.15596,3.8997263 -2.75461,2.88321993 0.91455,6.6825398 -6.27543,18.4022831 m -8.05629,-28.917864 c 0.59802,-0.574151 11.4278,2.295378 14.43718,4.2200739 2.79612,1.7114281 4.56772,3.4366233 4.23364,4.104769 -3.21246,2.9040941 1.11173,6.8664048 -6.3885,19.8580771 m -9.22941,-31.235839 c 0.54365,-0.521953 12.53623,2.753836 15.64567,4.877194 2.86572,1.879641 4.61503,3.7024096 4.31134,4.3098165 -3.67031,2.9249599 1.30888,7.05027493 -6.50158,21.3138565 m -9.63929,-33.04497 c 0.48929,-0.469757 13.64466,3.212285 16.85417,5.534319 2.93532,2.047854 4.66235,3.968192 4.38901,4.5148545 -4.12815,2.9458351 1.50608,7.2341452 -6.61464,22.7696455 m -11.06681,-35.617315 c 0.43493,-0.41756 14.75309,3.670733 18.06267,6.191443 3.00492,2.216062 4.70966,4.233973 4.4667,4.719897 -4.58599,2.9667096 1.70324,7.4180147 -6.72771,24.225438 m -11.73111,-38.189698 c 0.38056,-0.365365 15.86152,4.129182 19.27116,6.848573 3.07453,2.384261 4.75698,4.499752 4.5444,4.924931 -5.04384,2.98758 1.9004,7.6018937 -6.84079,25.681221 m -12.64981,-39.489997 c 0.3262,-0.313175 16.96994,4.587626 20.47966,7.505684 3.14412,2.552474 4.80429,4.765543 4.62207,5.129979 -5.50167,3.008454 2.09759,7.7857588 -6.95386,27.137014 m -14.32854,-42.059162 c 0.277,-0.260944 18.42246,5.045311 22.10095,8.161564 3.2749,2.720283 4.94397,5.030564 4.78922,5.33421 -6.07295,3.028872 2.33843,7.9684211 -7.20143,28.588465 m -15.62138,-43.868302 c 0.21747,-0.208782 19.18681,5.504523 22.89665,8.81993 3.28332,2.888894 4.89893,5.297105 4.77745,5.540067 -6.41737,3.050186 2.49192,8.1534903 -7.18001,30.048582 m -16.67794,-46.189452 c 0.16309,-0.156583 20.29523,5.962973 24.10515,9.477059 3.35293,3.057098 4.94623,5.562888 4.85512,5.745106 -6.87519,3.071061 2.68911,8.3373562 -7.29306,31.504371 m -17.59666,-47.744165 c 0.10873,-0.104388 21.40366,6.421426 25.31364,10.134175 3.42252,3.225311 4.99355,5.828673 4.93281,5.950152 -7.33303,3.091937 2.88629,8.5212271 -7.40613,32.960161 m -19.02418,-50.062126 c 0.0544,-0.05219 22.51208,6.87987 26.52214,10.791299 3.49213,3.393524 5.04087,6.094452 5.01049,6.155191 -7.79088,3.112807 3.08346,8.7051008 -7.51921,34.415949"
           id="path15430" />
      </g>
      <path
         inkscape:connector-curvature="0"
         style="color:#000000;display:inline;overflow:visible;visibility:visible;fill:url(#linearGradient16447);fill-opacity:1;fill-rule:evenodd;stroke:none;stroke-width:0.5;stroke-linecap:butt;stroke-linejoin:miter;stroke-miterlimit:4;stroke-dasharray:none;stroke-dashoffset:0;stroke-opacity:1;marker:none;marker-start:none;marker-mid:none;marker-end:none;enable-background:accumulate"
         id="path16405"
         sodipodi:nodetypes="cccccc"
         d="m -375.25,12.34375 c -25.81187,3.352373 -54.65255,0.982443 -76.53125,17.4375 -17.14262,11.857307 -27.68226,32.924356 -24.96875,53.90625 1.38668,14.976505 5.26382,25.30895 7.5489,39.55564 47.97498,-34.42221 -11.01978,-52.499236 96.35735,-110.93064 -0.79998,-0.06943 -1.60758,-0.04138 -2.40625,0.03125 z" />
    </g>
    <g
       id="g4559"
       transform="translate(58.412721,337.09814)"
       inkscape:export-xdpi="28.4"
       inkscape:export-ydpi="28.4">
      <path
         inkscape:connector-curvature="0"
         style="fill:#aa4400;fill-rule:evenodd;stroke:#000000;stroke-width:0.99999994px;stroke-linecap:butt;stroke-linejoin:miter;stroke-opacity:1"
         d="m 191.41463,-113.22353 c 0.91314,-0.57076 1.7101,-1.38034 2.56515,-2.07051 0.72125,-0.58217 1.95219,0.22451 2.56514,-0.51762 1.38869,-1.68135 1.28258,0.22298 1.28258,1.03525 0,0.17549 0,0.50933 0,1.55288 0,1.39326 2.98126,-1.02144 0,2.58812 -0.22533,0.27282 -0.57004,0.34509 -0.85505,0.51763 -2.38096,1.44137 -0.85505,-2.50658 -0.85505,1.55288 0,1.04953 -2.17748,-0.42111 -2.56515,0.51762 -0.71254,1.72542 -1.11762,-3.6943 -2.13762,-5.17625 z"
         id="path4397" />
      <circle
         r="10.500134"
         cy="27.355583"
         cx="-430.50552"
         style="color:#000000;display:inline;overflow:visible;visibility:visible;fill:#000000;fill-opacity:1;fill-rule:evenodd;stroke:none;stroke-width:0.5;stroke-linecap:butt;stroke-linejoin:miter;stroke-miterlimit:4;stroke-dasharray:none;stroke-dashoffset:0;stroke-opacity:1;marker:none;marker-start:none;marker-mid:none;marker-end:none;enable-background:accumulate"
         id="path4399"
         transform="matrix(0.8238595,0,0,0.8238595,546.80388,-92.889619)" />
      <path
         inkscape:connector-curvature="0"
         style="color:#000000;display:inline;overflow:visible;visibility:visible;fill:url(#linearGradient4589);fill-opacity:1;fill-rule:evenodd;stroke:none;stroke-width:0.5;stroke-linecap:butt;stroke-linejoin:miter;stroke-miterlimit:4;stroke-dasharray:none;stroke-dashoffset:0;stroke-opacity:1;marker:none;marker-start:none;marker-mid:none;marker-end:none;enable-background:accumulate"
         d="m 190.31395,-77.265619 c -5.8784,-0.307118 -7.94077,9.217782 -2.48925,11.353419 4.86871,3.165222 11.44267,-3.890723 7.84721,-8.545421 -1.08875,-1.819603 -3.23968,-2.95731 -5.35796,-2.807998 z"
         id="path4401" />
      <circle
         r="10.500134"
         cy="27.355583"
         cx="-430.50552"
         style="color:#000000;display:inline;overflow:visible;visibility:visible;fill:#000000;fill-opacity:1;fill-rule:evenodd;stroke:none;stroke-width:0.5;stroke-linecap:butt;stroke-linejoin:miter;stroke-miterlimit:4;stroke-dasharray:none;stroke-dashoffset:0;stroke-opacity:1;marker:none;marker-start:none;marker-mid:none;marker-end:none;enable-background:accumulate"
         id="path4403"
         transform="matrix(0.8238595,0,0,0.8238595,562.42489,-93.764312)" />
      <path
         inkscape:connector-curvature="0"
         style="color:#000000;display:inline;overflow:visible;visibility:visible;fill:url(#linearGradient4591);fill-opacity:1;fill-rule:evenodd;stroke:none;stroke-width:0.5;stroke-linecap:butt;stroke-linejoin:miter;stroke-miterlimit:4;stroke-dasharray:none;stroke-dashoffset:0;stroke-opacity:1;marker:none;marker-start:none;marker-mid:none;marker-end:none;enable-background:accumulate"
         id="path4405"
         d="m 206.74305,-77.729282 c -5.87839,-0.307118 -7.94076,9.217782 -2.48925,11.35342 4.86871,3.165222 11.44268,-3.890723 7.84722,-8.545422 -1.08875,-1.819602 -3.23969,-2.957309 -5.35797,-2.807998 z" />
      <circle
         r="10.500134"
         cy="27.355583"
         cx="-430.50552"
         style="color:#000000;display:inline;overflow:visible;visibility:visible;fill:#000000;fill-opacity:1;fill-rule:evenodd;stroke:none;stroke-width:0.5;stroke-linecap:butt;stroke-linejoin:miter;stroke-miterlimit:4;stroke-dasharray:none;stroke-dashoffset:0;stroke-opacity:1;marker:none;marker-start:none;marker-mid:none;marker-end:none;enable-background:accumulate"
         id="path4407"
         transform="matrix(0.8238595,0,0,0.8238595,569.06134,-103.57118)" />
      <circle
         r="10.500134"
         cy="27.355583"
         cx="-430.50552"
         style="color:#000000;display:inline;overflow:visible;visibility:visible;fill:#000000;fill-opacity:1;fill-rule:evenodd;stroke:none;stroke-width:0.5;stroke-linecap:butt;stroke-linejoin:miter;stroke-miterlimit:4;stroke-dasharray:none;stroke-dashoffset:0;stroke-opacity:1;marker:none;marker-start:none;marker-mid:none;marker-end:none;enable-background:accumulate"
         id="path4409"
         transform="matrix(0.8238595,0,0,0.8238595,569.28305,-112.79055)" />
      <circle
         r="10.500134"
         cy="27.355583"
         cx="-430.50552"
         style="color:#000000;display:inline;overflow:visible;visibility:visible;fill:#000000;fill-opacity:1;fill-rule:evenodd;stroke:none;stroke-width:0.5;stroke-linecap:butt;stroke-linejoin:miter;stroke-miterlimit:4;stroke-dasharray:none;stroke-dashoffset:0;stroke-opacity:1;marker:none;marker-start:none;marker-mid:none;marker-end:none;enable-background:accumulate"
         id="path4411"
         transform="matrix(0.8238595,0,0,0.8238595,537.43109,-104.82756)" />
      <circle
         r="10.500134"
         cy="27.355583"
         cx="-430.50552"
         style="color:#000000;display:inline;overflow:visible;visibility:visible;fill:#000000;fill-opacity:1;fill-rule:evenodd;stroke:none;stroke-width:0.5;stroke-linecap:butt;stroke-linejoin:miter;stroke-miterlimit:4;stroke-dasharray:none;stroke-dashoffset:0;stroke-opacity:1;marker:none;marker-start:none;marker-mid:none;marker-end:none;enable-background:accumulate"
         id="path4413"
         transform="matrix(0.8238595,0,0,0.8238595,550.37095,-102.33912)" />
      <circle
         r="10.500134"
         cy="27.355583"
         cx="-430.50552"
         style="color:#000000;display:inline;overflow:visible;visibility:visible;fill:#000000;fill-opacity:1;fill-rule:evenodd;stroke:none;stroke-width:0.5;stroke-linecap:butt;stroke-linejoin:miter;stroke-miterlimit:4;stroke-dasharray:none;stroke-dashoffset:0;stroke-opacity:1;marker:none;marker-start:none;marker-mid:none;marker-end:none;enable-background:accumulate"
         id="path4415"
         transform="matrix(0.8238595,0,0,0.8238595,560.32468,-99.353002)" />
      <circle
         r="10.500134"
         cy="27.355583"
         cx="-430.50552"
         style="color:#000000;display:inline;overflow:visible;visibility:visible;fill:#000000;fill-opacity:1;fill-rule:evenodd;stroke:none;stroke-width:0.5;stroke-linecap:butt;stroke-linejoin:miter;stroke-miterlimit:4;stroke-dasharray:none;stroke-dashoffset:0;stroke-opacity:1;marker:none;marker-start:none;marker-mid:none;marker-end:none;enable-background:accumulate"
         id="path4417"
         transform="matrix(0.8238595,0,0,0.8238595,536.9334,-119.75817)" />
      <circle
         r="10.500134"
         cy="27.355583"
         cx="-430.50552"
         style="color:#000000;display:inline;overflow:visible;visibility:visible;fill:#000000;fill-opacity:1;fill-rule:evenodd;stroke:none;stroke-width:0.5;stroke-linecap:butt;stroke-linejoin:miter;stroke-miterlimit:4;stroke-dasharray:none;stroke-dashoffset:0;stroke-opacity:1;marker:none;marker-start:none;marker-mid:none;marker-end:none;enable-background:accumulate"
         id="path4419"
         transform="matrix(0.8238595,0,0,0.8238595,568.28768,-125.23273)" />
      <path
         inkscape:connector-curvature="0"
         style="color:#000000;display:inline;overflow:visible;visibility:visible;fill:url(#linearGradient4593);fill-opacity:1;fill-rule:evenodd;stroke:none;stroke-width:0.5;stroke-linecap:butt;stroke-linejoin:miter;stroke-miterlimit:4;stroke-dasharray:none;stroke-dashoffset:0;stroke-opacity:1;marker:none;marker-start:none;marker-mid:none;marker-end:none;enable-background:accumulate"
         id="path4421"
         d="m 214.20099,-109.80016 c -5.95593,-0.54919 -8.28518,9.06882 -2.80799,11.323059 4.90836,3.262227 11.56992,-3.856389 7.89275,-8.545419 -1.03864,-1.72744 -3.06987,-2.83349 -5.08476,-2.77764 z" />
      <circle
         r="10.500134"
         cy="27.355583"
         cx="-430.50552"
         style="color:#000000;display:inline;overflow:visible;visibility:visible;fill:url(#radialGradient4595);fill-opacity:1;fill-rule:evenodd;stroke:none;stroke-width:0.5;stroke-linecap:butt;stroke-linejoin:miter;stroke-miterlimit:4;stroke-dasharray:none;stroke-dashoffset:0;stroke-opacity:1;marker:none;marker-start:none;marker-mid:none;marker-end:none;enable-background:accumulate"
         id="path4423"
         transform="matrix(0.8238595,0,0,0.8238595,559.32931,-131.98331)" />
      <circle
         r="10.500134"
         cy="27.355583"
         cx="-430.50552"
         style="color:#000000;display:inline;overflow:visible;visibility:visible;fill:#000000;fill-opacity:1;fill-rule:evenodd;stroke:none;stroke-width:0.5;stroke-linecap:butt;stroke-linejoin:miter;stroke-miterlimit:4;stroke-dasharray:none;stroke-dashoffset:0;stroke-opacity:1;marker:none;marker-start:none;marker-mid:none;marker-end:none;enable-background:accumulate"
         id="path4425"
         transform="matrix(0.8238595,0,0,0.8238595,559.32931,-131.98331)" />
      <path
         inkscape:connector-curvature="0"
         style="color:#000000;display:inline;overflow:visible;visibility:visible;fill:url(#linearGradient4597);fill-opacity:1;fill-rule:evenodd;stroke:none;stroke-width:0.5;stroke-linecap:butt;stroke-linejoin:miter;stroke-miterlimit:4;stroke-dasharray:none;stroke-dashoffset:0;stroke-opacity:1;marker:none;marker-start:none;marker-mid:none;marker-end:none;enable-background:accumulate"
         id="path4427"
         d="m 203.64919,-116.69316 c -5.86066,-0.28289 -7.92917,9.16556 -2.53479,11.35342 4.91696,3.19139 11.5114,-3.90345 7.8624,-8.59095 -1.10383,-1.79082 -3.2242,-2.8994 -5.32761,-2.76247 z" />
      <circle
         r="10.500134"
         cy="27.355583"
         cx="-430.50552"
         style="color:#000000;display:inline;overflow:visible;visibility:visible;fill:#000000;fill-opacity:1;fill-rule:evenodd;stroke:none;stroke-width:0.5;stroke-linecap:butt;stroke-linejoin:miter;stroke-miterlimit:4;stroke-dasharray:none;stroke-dashoffset:0;stroke-opacity:1;marker:none;marker-start:none;marker-mid:none;marker-end:none;enable-background:accumulate"
         id="path4429"
         transform="matrix(0.8238595,0,0,0.8238595,555.8455,-124.73504)" />
      <path
         inkscape:connector-curvature="0"
         style="color:#000000;display:inline;overflow:visible;visibility:visible;fill:url(#linearGradient4599);fill-opacity:1;fill-rule:evenodd;stroke:none;stroke-width:0.5;stroke-linecap:butt;stroke-linejoin:miter;stroke-miterlimit:4;stroke-dasharray:none;stroke-dashoffset:0;stroke-opacity:1;marker:none;marker-start:none;marker-mid:none;marker-end:none;enable-background:accumulate"
         id="path4431"
         d="m 204.87864,-83.330093 c -5.96172,-0.560799 -8.27992,9.125679 -2.76247,11.353419 4.93965,3.194952 11.49957,-3.908863 7.8624,-8.575778 -1.054,-1.719036 -3.08356,-2.839412 -5.09993,-2.777641 z" />
      <circle
         r="10.500134"
         cy="27.355583"
         cx="-430.50552"
         style="color:#000000;display:inline;overflow:visible;visibility:visible;fill:#000000;fill-opacity:1;fill-rule:evenodd;stroke:none;stroke-width:0.5;stroke-linecap:butt;stroke-linejoin:miter;stroke-miterlimit:4;stroke-dasharray:none;stroke-dashoffset:0;stroke-opacity:1;marker:none;marker-start:none;marker-mid:none;marker-end:none;enable-background:accumulate"
         id="path4433"
         transform="matrix(0.8238595,0,0,0.8238595,560.32468,-113.28824)" />
      <path
         inkscape:connector-curvature="0"
         style="color:#000000;display:inline;overflow:visible;visibility:visible;fill:url(#linearGradient4601);fill-opacity:1;fill-rule:evenodd;stroke:none;stroke-width:0.5;stroke-linecap:butt;stroke-linejoin:miter;stroke-miterlimit:4;stroke-dasharray:none;stroke-dashoffset:0;stroke-opacity:1;marker:none;marker-start:none;marker-mid:none;marker-end:none;enable-background:accumulate"
         id="path4435"
         d="m 204.87864,-97.263836 c -5.93952,-0.559951 -8.28514,9.07937 -2.79282,11.338242 4.95536,3.231748 11.53896,-3.898655 7.89275,-8.575779 -1.07442,-1.709354 -3.0761,-2.824497 -5.09993,-2.762463 z" />
      <path
         inkscape:connector-curvature="0"
         style="color:#000000;display:inline;overflow:visible;visibility:visible;fill:url(#linearGradient4603);fill-opacity:1;fill-rule:evenodd;stroke:none;stroke-width:0.5;stroke-linecap:butt;stroke-linejoin:miter;stroke-miterlimit:4;stroke-dasharray:none;stroke-dashoffset:0;stroke-opacity:1;marker:none;marker-start:none;marker-mid:none;marker-end:none;enable-background:accumulate"
         id="path4437"
         d="m 200.15816,-109.20145 c -5.79101,-0.31527 -7.94996,9.1054 -2.54996,11.338239 4.96775,3.246556 11.53103,-3.956129 7.89275,-8.575779 -1.1135,-1.77837 -3.23447,-2.90145 -5.34279,-2.76246 z" />
      <path
         inkscape:connector-curvature="0"
         style="color:#000000;display:inline;overflow:visible;visibility:visible;fill:url(#linearGradient4605);fill-opacity:1;fill-rule:evenodd;stroke:none;stroke-width:0.5;stroke-linecap:butt;stroke-linejoin:miter;stroke-miterlimit:4;stroke-dasharray:none;stroke-dashoffset:0;stroke-opacity:1;marker:none;marker-start:none;marker-mid:none;marker-end:none;enable-background:accumulate"
         id="path4439"
         d="m 181.7468,-88.794306 c -5.82219,-0.335246 -7.94795,9.190747 -2.51961,11.338241 4.89441,3.225742 11.53226,-3.950928 7.84722,-8.575778 -1.06706,-1.790269 -3.25308,-2.907402 -5.32761,-2.762463 z" />
      <path
         inkscape:connector-curvature="0"
         style="color:#000000;display:inline;overflow:visible;visibility:visible;fill:url(#linearGradient4607);fill-opacity:1;fill-rule:evenodd;stroke:none;stroke-width:0.5;stroke-linecap:butt;stroke-linejoin:miter;stroke-miterlimit:4;stroke-dasharray:none;stroke-dashoffset:0;stroke-opacity:1;marker:none;marker-start:none;marker-mid:none;marker-end:none;enable-background:accumulate"
         id="path4441"
         d="m 194.67877,-86.305054 c -5.66129,-0.321923 -7.88707,8.786763 -2.83835,11.17128 4.73352,3.521226 11.61465,-3.2176 8.42399,-7.999001 -1.03359,-2.011979 -3.32392,-3.341915 -5.58564,-3.172279 z" />
      <path
         inkscape:connector-curvature="0"
         style="color:#000000;display:inline;overflow:visible;visibility:visible;fill:url(#linearGradient4609);fill-opacity:1;fill-rule:evenodd;stroke:none;stroke-width:0.5;stroke-linecap:butt;stroke-linejoin:miter;stroke-miterlimit:4;stroke-dasharray:none;stroke-dashoffset:0;stroke-opacity:1;marker:none;marker-start:none;marker-mid:none;marker-end:none;enable-background:accumulate"
         id="path4443"
         d="m 181.24592,-103.72982 c -5.8076,-0.31353 -7.93728,9.100003 -2.54997,11.33824 4.8262,3.187477 11.41024,-3.733424 8.01418,-8.36328 -1.05149,-1.90282 -3.28959,-3.12473 -5.46421,-2.97496 z" />
      <circle
         r="10.500134"
         cy="27.355583"
         cx="-430.50552"
         style="color:#000000;display:inline;overflow:visible;visibility:visible;fill:#000000;fill-opacity:1;fill-rule:evenodd;stroke:none;stroke-width:0.5;stroke-linecap:butt;stroke-linejoin:miter;stroke-miterlimit:4;stroke-dasharray:none;stroke-dashoffset:0;stroke-opacity:1;marker:none;marker-start:none;marker-mid:none;marker-end:none;enable-background:accumulate"
         id="path4445"
         transform="matrix(0.8238595,0,0,0.8238595,541.83356,-129.20768)" />
      <path
         inkscape:connector-curvature="0"
         style="color:#000000;display:inline;overflow:visible;visibility:visible;fill:url(#linearGradient4611);fill-opacity:1;fill-rule:evenodd;stroke:none;stroke-width:0.5;stroke-linecap:butt;stroke-linejoin:miter;stroke-miterlimit:4;stroke-dasharray:none;stroke-dashoffset:0;stroke-opacity:1;marker:none;marker-start:none;marker-mid:none;marker-end:none;enable-background:accumulate"
         id="path4447"
         d="m 186.39138,-113.49558 c -5.93595,-0.56562 -8.29765,9.07924 -2.79282,11.33824 4.90162,3.248585 11.5577,-3.91768 7.89275,-8.54542 -1.03535,-1.74002 -3.08245,-2.84684 -5.09993,-2.79282 z" />
      <circle
         r="10.500134"
         cy="27.355583"
         cx="-430.50552"
         style="color:#000000;display:inline;overflow:visible;visibility:visible;fill:#000000;fill-opacity:1;fill-rule:evenodd;stroke:none;stroke-width:0.5;stroke-linecap:butt;stroke-linejoin:miter;stroke-miterlimit:4;stroke-dasharray:none;stroke-dashoffset:0;stroke-opacity:1;marker:none;marker-start:none;marker-mid:none;marker-end:none;enable-background:accumulate"
         id="path4449"
         transform="matrix(0.8238595,0,0,0.8238595,546.38945,-117.26973)" />
      <path
         inkscape:connector-curvature="0"
         style="color:#000000;display:inline;overflow:visible;visibility:visible;fill:url(#linearGradient4613);fill-opacity:1;fill-rule:evenodd;stroke:none;stroke-width:0.5;stroke-linecap:butt;stroke-linejoin:miter;stroke-miterlimit:4;stroke-dasharray:none;stroke-dashoffset:0;stroke-opacity:1;marker:none;marker-start:none;marker-mid:none;marker-end:none;enable-background:accumulate"
         id="path4451"
         d="m 190.45548,-101.7337 c -5.82303,-0.30068 -7.92775,9.100695 -2.54997,11.338247 4.84704,3.186739 11.3984,-3.738674 8.01418,-8.363281 -1.05323,-1.910126 -3.2921,-3.121586 -5.46421,-2.974966 z" />
    </g>
    <g
       id="g15411"
       transform="matrix(0.5172799,0,0,0.5172799,-54.635527,269.62454)">
      <path
         inkscape:connector-curvature="0"
         style="fill:url(#radialGradient15394);fill-opacity:1;fill-rule:evenodd;stroke:#000000;stroke-width:1.00098598;stroke-linecap:butt;stroke-linejoin:miter;stroke-miterlimit:4;stroke-dasharray:none;stroke-opacity:1"
         id="path2267"
         sodipodi:nodetypes="csczcszc"
         d="m 489.49591,48.898566 c -0.0462,-0.0457 -9.94209,-8.379221 -21.52684,-10.073426 -5.71945,-0.836437 -13.29464,1.156056 -19.07493,5.780278 -26.23286,25.67821 -9.80615,71.061762 4.91324,79.478832 14.50107,8.29222 22.92365,8.16122 37.33354,4.75107 25.56351,-8.30926 53.74242,-45.714289 29.2617,-72.524611 -1.80604,-1.977897 -5.3314,-4.479847 -11.87627,-6.090593 -6.8382,-1.682937 -19.05829,-1.166153 -19.03044,-1.32155 z"
         inkscape:export-xdpi="28.4"
         inkscape:export-ydpi="28.4" />
      <path
         inkscape:connector-curvature="0"
         style="color:#000000;display:inline;overflow:visible;visibility:visible;opacity:0.52542372;fill:url(#radialGradient15391);fill-opacity:1;fill-rule:evenodd;stroke:none;stroke-width:1px;stroke-linecap:butt;stroke-linejoin:miter;stroke-miterlimit:4;stroke-dasharray:none;stroke-dashoffset:0;stroke-opacity:1;marker:none;marker-start:none;marker-mid:none;marker-end:none;enable-background:accumulate"
         id="path5235"
         d="m 484.90376,46.912971 c -1.88775,0.794673 -3.13228,2.154183 -3.13228,3.69008 0,2.445064 3.15283,4.419519 7.03689,4.419514 3.88407,0 7.0369,-1.97445 7.0369,-4.419514 0,-0.58476 -0.1874,-1.147886 -0.51489,-1.659106 -4.34453,-0.143306 -7.92438,-0.04491 -7.90937,-0.128724 -0.014,-0.01379 -0.93312,-0.788873 -2.51725,-1.90225 z"
         inkscape:export-xdpi="28.4"
         inkscape:export-ydpi="28.4" />
      <path
         inkscape:connector-curvature="0"
         style="fill:#445500;fill-opacity:1;fill-rule:evenodd;stroke:#000000;stroke-width:1.00098598;stroke-linecap:butt;stroke-linejoin:miter;stroke-miterlimit:4;stroke-dasharray:none;stroke-opacity:1"
         d="m 485.98727,48.233844 0,1.793216 c 0,0 0.10674,1.942645 3.13813,2.070733 1.71693,0.07255 3.78948,-1.767695 3.78948,-1.767695 -4.1976,-11.158848 7.29224,-55.7529595 22.53233,-64.602542 l -5.12347,0.51235 c -15.10219,19.2537037 -18.40308,40.628436 -22.28707,58.91986 -0.76853,2.305562 -2.30557,3.330252 -2.0494,3.074078 z"
         sodipodi:nodetypes="ccsccccc"
         id="path5233"
         inkscape:export-xdpi="28.4"
         inkscape:export-ydpi="28.4" />
      <path
         inkscape:connector-curvature="0"
         style="color:#000000;display:inline;overflow:visible;visibility:visible;fill:url(#radialGradient15387);fill-opacity:1;fill-rule:evenodd;stroke:#000000;stroke-width:1.00098598;stroke-linecap:butt;stroke-linejoin:miter;stroke-miterlimit:4;stroke-dasharray:none;stroke-dashoffset:0;stroke-opacity:1;marker:none;marker-start:none;marker-mid:none;marker-end:none;enable-background:accumulate"
         id="path14084"
         d="m 473.9964,-20.104359 c -0.25708,0.03461 -0.51632,0.08796 -0.76469,0.148693 0.24844,-0.06075 0.5089,-0.110989 0.76469,-0.148693 z m 22.2823,2.336561 c 0.11707,0.0433 0.20805,0.07565 0.27614,0.08497 -0.0638,-0.0087 -0.16905,-0.04653 -0.27614,-0.08497 z m 0.27614,0.08497 c 0.5545,0.07587 1.3241,0.217803 2.03918,0.446068 -0.71765,-0.229812 -1.48468,-0.370193 -2.03918,-0.446068 z m 4.43947,1.975458 c 0.3191,0.192831 0.69964,0.382308 1.10455,0.573519 -0.40477,-0.190205 -0.78554,-0.381443 -1.10455,-0.573519 z m 1.10455,0.573519 c 0.80981,0.382413 1.684,0.739563 2.18787,0.955864 -0.50387,-0.216301 -1.37833,-0.575464 -2.18787,-0.955864 z m 2.18787,0.955864 c 0.0376,0.01612 0.069,0.05013 0.1062,0.08497 -0.0402,-0.03947 -0.0655,-0.0675 -0.1062,-0.08497 z m 0.1062,0.08497 c 0.11158,0.104489 0.23434,0.278898 0.33987,0.509796 -0.10254,-0.225753 -0.23151,-0.40355 -0.33987,-0.509796 z m -2.31531,5.3528504 c -5.10355,0.020179 -15.52969,0.6730389 -30.05668,4.694363 -21.13017,5.8492012 -51.66401,24.2293376 -55.48271,25.0649366 -2.85156,0.623974 -6.40889,2.688547 -8.02928,3.696011 2.20339,-0.538781 4.42392,-1.075576 6.62734,-1.614349 1.61548,-0.395032 4.2984,-1.539832 6.66982,-1.635595 1.88614,-0.07615 3.96795,0.198476 5.73519,-0.233656 2.61895,-0.640397 4.75097,-1.160188 7.47699,-1.826765 3.07487,-0.751888 -0.007,1.306863 3.95093,1.147039 1.05454,-0.04258 4.78271,-0.232549 5.39533,-0.382344 1.95859,-0.478926 2.37668,1.055593 2.69766,0.977105 1.97401,-0.482687 4.08277,-1.492083 6.05382,-1.699318 1.11452,-0.11719 2.28076,0.60283 3.35615,0.339863 2.02462,-0.495063 1.75902,1.956037 3.90844,1.869252 1.62027,-0.06543 4.26961,-1.27396 5.14043,-1.019593 0.20329,0.05939 1.82319,1.431733 3.33491,1.062075 2.81052,-0.687246 3.1096,-0.05423 5.8414,-0.722212 1.58266,-0.387 1.71192,-0.171802 0.31863,0.849659 2.1271,-0.918111 3.98493,-6.09e-4 6.05381,-0.998348 0.25468,-0.122828 4.47593,-1.213 5.96886,-1.932974 2.5052,-1.208159 1.93376,3.153079 6.47865,-3.696016 1.06523,-1.605305 0.45671,-0.915026 3.90843,-3.547324 4.35923,-3.3243671 0.2895,0.909318 0.33986,0.8709 0.0798,-0.06085 3.65037,-3.1758486 4.4607,-4.3969825 1.40135,-2.1118196 1.34,0.1742176 1.44443,-0.8071765 0.13882,-1.3048947 1.58023,-2.1384567 1.86924,-3.5048411 0.19635,-0.9283124 1.22992,-2.190157 1.97546,-3.31367103 0.82426,-1.24215519 0.75442,-2.80806267 -0.23365,-3.69601637 0.0545,-0.5120249 0.1204,-2.7628027 -0.0637,-3.2499436 -0.23184,-0.6133335 -0.46915,-1.2346855 -0.70098,-1.8480097 l -0.89214,-0.3398628 c 0,0 -1.22753,-0.1153822 -3.54732,-0.106206 z m -58.96632,3.3986362 c -0.48873,0.3082963 -0.88994,0.6814778 -1.27449,1.06207 0.38135,-0.3770039 0.79054,-0.7565563 1.27449,-1.06207 z m -1.82677,1.6143488 c -0.35044,0.3823402 -0.69141,0.7708908 -1.01959,1.1045567 0.33174,-0.3366867 0.66548,-0.7175253 1.01959,-1.1045567 z m -1.01959,1.1045567 c -0.32817,0.3336659 -0.63897,0.6234211 -0.99835,0.8284183 0.3553,-0.2026723 0.67406,-0.4992883 0.99835,-0.8284183 z m -0.99835,0.8284183 c -0.34164,0.1948909 -0.77291,0.5376233 -1.232,0.95586394 0.46029,-0.41748154 0.89036,-0.76097304 1.232,-0.95586394 z m -1.232,0.95586394 c -0.23292,0.21220065 -0.46055,0.43745997 -0.70097,0.67972972 0.2377,-0.23798659 0.47082,-0.47098894 0.70097,-0.67972972 z m -0.70097,0.67972972 c -0.47039,0.47400559 -0.96816,0.980983 -1.3807,1.46566124 0.41709,-0.48731897 0.90532,-0.98969633 1.3807,-1.46566124 z m -4.46071,5.24664184 c -0.62393,0.4927206 -1.33518,0.9492104 -1.9967,1.3169727 0.66089,-0.3683122 1.37421,-0.8229939 1.9967,-1.3169727 z m -3.16498,1.9754575 c -0.17882,0.1307233 -0.35509,0.2831824 -0.53103,0.4460729 0.17243,-0.1583184 0.35584,-0.3184346 0.53103,-0.4460729 z m -4.05712,3.8659446 c -0.28354,0.259969 -0.49109,0.526204 -0.65848,0.785936 0.16662,-0.260409 0.3753,-0.525646 0.65848,-0.785936 z m -4.80057,4.375746 c -0.35275,0.265315 -0.67317,0.543962 -0.91339,0.807173 0.2403,-0.263504 0.56051,-0.54141 0.91339,-0.807173 z m -1.35945,1.571866 c -0.0498,0.235159 -0.12525,0.419075 -0.21242,0.57352 0.0876,-0.154564 0.16267,-0.338361 0.21242,-0.57352 z m -0.36111,0.785936 c -0.15444,0.183362 -0.34423,0.294987 -0.55227,0.382346 0.20947,-0.08773 0.39689,-0.198746 0.55227,-0.382346 z"
         inkscape:export-xdpi="28.4"
         inkscape:export-ydpi="28.4" />
      <path
         inkscape:connector-curvature="0"
         style="fill:url(#radialGradient15384);fill-opacity:1;fill-rule:evenodd;stroke:#000000;stroke-width:1.00098598;stroke-linecap:butt;stroke-linejoin:miter;stroke-miterlimit:4;stroke-dasharray:none;stroke-opacity:1"
         id="path15055"
         d="m 475.01599,-20.189323 c -0.59774,0.011 -1.20499,0.09201 -1.78428,0.233657 -2.03416,0.497397 -4.11797,1.225967 -6.05383,1.699318 -2.08653,0.510217 -3.37872,1.125088 -5.09795,1.954211 -1.59355,0.768502 -3.47279,1.36092 -5.37409,2.017943 -1.91518,0.661822 -6.75178,4.22677 -6.83976,4.24829 -2.63193,0.643574 -3.51888,3.2332795 -5.96885,4.2907773 -2.22143,0.9588537 -3.19313,3.1309047 -4.63064,3.9509151 -1.36658,0.7795596 -4.15417,3.9031541 -4.58815,4.8642964 -0.57763,1.2792683 -2.77811,2.8735703 -4.43947,3.6747746 -1.4291,0.6891991 -2.73688,2.8789812 -4.0996,3.8022216 -1.44177,0.976804 -1.54617,2.296463 -1.93298,2.591459 -0.93592,0.713727 -4.44267,2.448208 -4.7156,3.738498 -0.39792,1.88129 -2.13417,0.836093 -3.18622,2.421531 -0.12482,0.188094 -1.5916,2.083361 -3.80223,3.037527 -1.47766,0.637811 -5.66162,2.792639 -4.05712,2.400289 0.0133,-0.0033 0.0292,0.0033 0.0425,0 0.008,-0.002 0.013,-0.01922 0.0213,-0.02125 1.62039,-1.007464 5.17772,-3.072037 8.02928,-3.696011 3.8187,-0.835599 34.35254,-19.2157354 55.48271,-25.0649366 21.13017,-5.8492012 33.604,-4.5881477 33.604,-4.588157 l 0.89214,0.3398628 c -0.28226,-0.7467856 -0.56738,-1.5048114 -0.84966,-2.2515922 -0.21655,-0.572897 -0.77969,-3.374314 -1.38069,-3.632293 -1.00774,-0.432612 -3.49287,-1.410248 -3.9934,-2.081662 -0.64739,-0.868456 -2.62948,-1.271434 -3.73849,-1.423179 -0.51049,-0.06985 -2.6148,-1.255606 -3.05877,-1.147039 -1.43821,0.351675 -1.92937,-0.128197 -3.52609,-0.06373 -1.33889,0.05407 -2.23832,-0.415385 -3.24994,-0.849659 -1.90477,-0.817667 -2.84497,0.105496 -5.01299,-0.19117 -0.76586,-0.104787 -3.10411,0.342091 -4.05713,0.06372 -0.67234,-0.196401 -1.63771,-0.336956 -2.63393,-0.318621 z"
         inkscape:export-xdpi="28.4"
         inkscape:export-ydpi="28.4" />
      <path
         inkscape:connector-curvature="0"
         style="fill:none;fill-opacity:1;fill-rule:evenodd;stroke:none;stroke-width:1px;stroke-linecap:butt;stroke-linejoin:miter;stroke-opacity:1"
         id="path15586"
         d="m 473.802,-26.643515 c 0,0 23.62051,7.338319 27.73063,11.448424 3.56173,3.561728 5.08819,6.3602343 5.08819,6.3602343 -8.24873,3.1336769 3.28062,8.88896653 -7.63229,35.8717367 m -93.87708,-7.886697 c 1.95716,-1.879037 10.76089,0.103038 9.66756,2.289689 -0.008,2.757992 -0.26849,5.579327 -5.597,9.667556 M 408.9276,16.606085 c 0.92421,-0.887322 4.77722,-0.455309 7.1862,0.277338 2.37851,0.70218 4.28384,1.841937 3.76754,2.874519 -0.46542,2.778867 -0.0713,5.763197 -5.71009,11.123349 m -0.91869,-18.091346 c 0.86985,-0.835127 5.88566,0.0031 8.3947,0.934458 2.44811,0.870393 4.33115,2.10772 3.84522,3.079557 -0.92326,2.799737 0.12585,5.947068 -5.82315,12.579138 M 416.81429,9.7370399 c 0.81548,-0.7829377 6.99408,0.4615781 9.60319,1.5915781 2.51771,1.038596 4.37846,2.373496 3.92291,3.2846 -1.3811,2.820607 0.32302,6.130937 -5.93622,14.034926 M 420.63043,6.1753029 c 0.76111,-0.7307434 8.10252,0.9200371 10.8117,2.2486994 2.58732,1.2068088 4.42577,2.6392827 4.0006,3.4896417 -1.83895,2.841483 0.52019,6.314808 -6.0493,15.490716 M 424.70098,2.3591634 c 0.70676,-0.6785357 9.21094,1.3784862 12.02019,2.9058286 2.65691,1.3750118 4.47309,2.9050644 4.07829,3.6946888 -2.29679,2.8623442 0.71736,6.4986732 -6.16237,16.9464992 m -6.37438,-26.85434883 c 0.65238,-0.62634147 10.31937,1.83693423 13.22868,3.56295373 2.72653,1.5432241 4.52041,3.1708418 4.15596,3.8997263 -2.75461,2.8832199 0.91455,6.6825398 -6.27543,18.4022828 m -8.05629,-28.9178635 c 0.59802,-0.5741513 11.4278,2.2953782 14.43718,4.22007367 2.79612,1.71142813 4.56772,3.43662333 4.23364,4.10476903 -3.21246,2.9040941 1.11173,6.8664048 -6.3885,19.8580768 m -9.22941,-31.2358388 c 0.54365,-0.5219529 12.53623,2.7538356 15.64567,4.8771936 2.86572,1.87964154 4.61503,3.7024101 4.31134,4.309817 -3.67031,2.9249599 1.30888,7.0502749 -6.50158,21.3138562 m -9.63929,-33.0449694 c 0.48929,-0.4697576 13.64466,3.2122846 16.85417,5.5343186 2.93532,2.0478539 4.66235,3.96819164 4.38901,4.51485454 -4.12815,2.94583516 1.50608,7.23414526 -6.61464,22.76964526 m -11.06681,-35.617315 c 0.43493,-0.41756 14.75309,3.6707333 18.06267,6.1914433 3.00492,2.2160621 4.70966,4.2339732 4.4667,4.7198973 -4.58599,2.9667093 1.70324,7.4180144 -6.72771,24.2254374 m -11.73111,-38.189698 c 0.38056,-0.365365 15.86152,4.129182 19.27116,6.8485732 3.07453,2.384261 4.75698,4.4997517 4.5444,4.9249307 -5.04384,2.98758043 1.9004,7.6018941 -6.84079,25.6812211 M 450.14192,-17.48478 c 0.3262,-0.313175 16.96994,4.587626 20.47966,7.5056843 3.14412,2.5524743 4.80429,4.7655425 4.62207,5.1299785 -5.50167,3.0084546 2.09759,7.7857593 -6.95386,27.1370142 m -14.32854,-42.059162 c 0.277,-0.260944 18.42246,5.045311 22.10095,8.161564 3.2749,2.7202837 4.94397,5.0305639 4.78922,5.3342104 -6.07295,3.0288721 2.33843,7.968421 -7.20143,28.5884646 m -15.62138,-43.868302 c 0.21747,-0.208782 19.18681,5.504523 22.89665,8.81993 3.28332,2.8888938 4.89893,5.2971056 4.77745,5.5400671 -6.41737,3.0501864 2.49192,8.1534905 -7.18001,30.0485819 m -16.67794,-46.189452 c 0.16309,-0.156583 20.29523,5.962973 24.10515,9.477059 3.35293,3.057098 4.94623,5.5628883 4.85512,5.7451058 -6.87519,3.0710616 2.68911,8.33735666 -7.29306,31.5043712 M 465.91531,-24.35383 c 0.10873,-0.104388 21.40366,6.421426 25.31364,10.134175 3.42252,3.225311 4.99355,5.8286737 4.93281,5.9501524 -7.33303,3.0919368 2.88629,8.52122694 -7.40613,32.9601606 m -19.02418,-50.062126 c 0.0544,-0.05219 22.51208,6.87987 26.52214,10.791299 3.49213,3.393524 5.04087,6.0944518 5.01049,6.1551917 -7.79088,3.1128068 3.08346,8.70510035 -7.51921,34.4159483"
         inkscape:export-xdpi="28.4"
         inkscape:export-ydpi="28.4" />
      <path
         inkscape:connector-curvature="0"
         style="fill:url(#linearGradient15380);fill-opacity:1;fill-rule:evenodd;stroke:none;stroke-width:1px;stroke-linecap:butt;stroke-linejoin:miter;stroke-opacity:1"
         id="path5617"
         sodipodi:nodetypes="cccccccc"
         d="m 462.50071,41.80299 c -15.16382,1.478694 -23.12894,18.068943 -24.1096,31.811717 -1.09138,16.610443 3.2886,35.324493 16.82818,46.083303 9.14835,11.07883 -3.19966,-13.03913 21.44445,-35.889592 29.55038,-28.068769 52.70203,-2.756527 44.73557,-18.672521 -4.15016,-9.486862 -14.64915,-13.740448 -24.56256,-12.962525 -6.06324,2.298358 -12.05085,2.275445 -16.60174,-4.933588 -5.33383,-3.267996 -11.38828,-5.815038 -17.7343,-5.436794 z"
         inkscape:export-xdpi="28.4"
         inkscape:export-ydpi="28.4" />
    </g>
    <g
       id="g8816"
       transform="matrix(0.5037505,0,0,0.5037505,85.426773,278.26352)"
       inkscape:export-xdpi="28.4"
       inkscape:export-ydpi="28.4">
      <path
         inkscape:connector-curvature="0"
         style="fill:url(#linearGradient6685);fill-opacity:1;fill-rule:evenodd;stroke:#000000;stroke-width:0.9665947;stroke-linecap:butt;stroke-linejoin:round;stroke-miterlimit:4;stroke-dasharray:none;stroke-opacity:1"
         id="path2207"
         sodipodi:nodetypes="ccccccccccccc"
         d="m 326.45689,35.272543 -16.49322,-24.739828 18.14255,14.51403 c 0.36773,-7.037106 -4.05753,-14.074212 -6.26742,-21.1113177 6.63027,6.5863917 13.80535,9.3590487 19.79188,20.4515907 2.22509,-5.827603 0.22478,-11.655205 0.32986,-17.4828077 3.78178,6.9271507 9.78281,13.8543007 8.90632,20.7814507 4.58923,-6.433542 15.36757,-7.562121 24.73982,-9.895931 -4.78662,5.011072 -12.69937,7.521238 -14.18417,15.173763 9.28564,-2.44626 17.41673,0.880244 26.0593,1.649322 -6.4943,1.891503 -15.21667,2.111955 -19.13217,5.937554 6.48734,3.612467 12.97469,8.659431 19.46203,15.173757 L 326.45689,35.272543 Z" />
      <path
         inkscape:connector-curvature="0"
         style="fill:url(#radialGradient6682);fill-opacity:1;fill-rule:evenodd;stroke:#000000;stroke-width:0.9665947;stroke-linecap:butt;stroke-linejoin:miter;stroke-miterlimit:4;stroke-dasharray:none;stroke-opacity:1"
         id="path2203"
         sodipodi:nodetypes="csccscc"
         d="m 276.38195,95.163017 c -1.29544,-20.364337 -11.23591,-70.380949 27.23792,-75.015959 22.63274,-2.726606 35.27538,12.502654 35.27538,12.502654 23.24466,-1.281782 35.35374,9.367437 41.97321,25.898374 0,0 4.13032,16.298111 -4.01873,27.684461 -8.14906,11.38636 -31.13457,30.965953 -31.13457,30.965953 -38.37857,24.2866 -69.61723,26.80065 -69.33321,-22.035483 z" />
      <path
         inkscape:connector-curvature="0"
         style="fill:#aad400;fill-opacity:1;fill-rule:evenodd;stroke:#000000;stroke-width:0.9665947;stroke-linecap:butt;stroke-linejoin:miter;stroke-miterlimit:4;stroke-dasharray:none;stroke-opacity:1"
         id="path2229"
         sodipodi:nodetypes="cscsc"
         d="m 328.7528,45.331075 c 0,0 -3.44553,1.376701 -4.16116,4.060325 -0.71563,2.683624 1.2986,6.674176 1.2986,6.674176 0,0 3.1734,-3.484914 3.88903,-6.168538 0.71563,-2.683624 -1.02647,-4.565963 -1.02647,-4.565963 z" />
      <path
         inkscape:connector-curvature="0"
         style="fill:#aad400;fill-opacity:1;fill-rule:evenodd;stroke:#000000;stroke-width:0.9665947;stroke-linecap:butt;stroke-linejoin:miter;stroke-miterlimit:4;stroke-dasharray:none;stroke-opacity:1"
         id="path2231"
         sodipodi:nodetypes="cscsc"
         d="m 350.70834,40.297633 c 0,0 -2.7261,2.216666 -2.81555,4.542476 -0.0894,2.325809 2.45773,4.760762 2.45773,4.760762 0,0 1.88613,-2.387977 1.97557,-4.713787 0.0894,-2.325809 -1.61775,-4.589451 -1.61775,-4.589451 z" />
      <path
         inkscape:connector-curvature="0"
         style="fill:#aad400;fill-opacity:1;fill-rule:evenodd;stroke:#000000;stroke-width:0.9665947;stroke-linecap:butt;stroke-linejoin:miter;stroke-miterlimit:4;stroke-dasharray:none;stroke-opacity:1"
         id="path2233"
         sodipodi:nodetypes="cscsc"
         d="m 354.04704,58.804208 c 0,0 -1.8336,2.20907 -1.75652,4.355972 0.0771,2.146897 2.06497,4.231627 2.06497,4.231627 0,0 1.92774,-2.146902 1.85065,-4.2938 -0.0771,-2.146902 -2.1591,-4.293799 -2.1591,-4.293799 z" />
      <path
         inkscape:connector-curvature="0"
         style="fill:#aad400;fill-opacity:1;fill-rule:evenodd;stroke:#000000;stroke-width:0.9665947;stroke-linecap:butt;stroke-linejoin:miter;stroke-miterlimit:4;stroke-dasharray:none;stroke-opacity:1"
         id="path2235"
         sodipodi:nodetypes="cscsc"
         d="m 336.61167,59.114065 c 0,0 -2.53529,2.037674 -3.06188,4.802181 -0.52656,2.764507 0.95553,6.255856 0.95553,6.255856 0,0 2.70712,-2.375171 3.23367,-5.139678 0.5266,-2.764512 -1.12732,-5.918359 -1.12732,-5.918359 z" />
      <path
         inkscape:connector-curvature="0"
         style="fill:#aad400;fill-opacity:1;fill-rule:evenodd;stroke:#000000;stroke-width:0.9665947;stroke-linecap:butt;stroke-linejoin:miter;stroke-miterlimit:4;stroke-dasharray:none;stroke-opacity:1"
         id="path2237"
         sodipodi:nodetypes="cscsc"
         d="m 301.37807,25.521692 c 0,0 0.19744,3.635246 -1.46184,5.583084 -1.65928,1.947837 -5.17533,2.208271 -5.17533,2.208271 0,0 0.0722,-3.6163 1.73149,-5.564138 1.65923,-1.947837 4.90568,-2.227217 4.90568,-2.227217 z" />
      <path
         inkscape:connector-curvature="0"
         style="fill:#aad400;fill-opacity:1;fill-rule:evenodd;stroke:#000000;stroke-width:0.9665947;stroke-linecap:butt;stroke-linejoin:miter;stroke-miterlimit:4;stroke-dasharray:none;stroke-opacity:1"
         id="path2239"
         sodipodi:nodetypes="cscsc"
         d="m 320.27647,30.232867 c 0,0 0.8318,2.859431 -0.23873,5.06735 -1.07049,2.207924 -4.0433,3.764345 -4.0433,3.764345 0,0 -1.27408,-3.377114 -0.2036,-5.585038 1.07053,-2.207923 4.48563,-3.246657 4.48563,-3.246657 z" />
      <path
         inkscape:connector-curvature="0"
         style="fill:#aad400;fill-opacity:1;fill-rule:evenodd;stroke:#000000;stroke-width:0.9665947;stroke-linecap:butt;stroke-linejoin:miter;stroke-miterlimit:4;stroke-dasharray:none;stroke-opacity:1"
         id="path2241"
         sodipodi:nodetypes="cscsc"
         d="m 303.93184,48.156971 c 0,0 -2.34099,2.687425 -2.51992,5.281593 -0.17888,2.594168 1.80429,5.095089 1.80429,5.095089 0,0 2.15446,-2.205274 2.33339,-4.799442 0.17888,-2.594169 -1.61776,-5.57724 -1.61776,-5.57724 z" />
      <path
         inkscape:connector-curvature="0"
         style="fill:#aad400;fill-opacity:1;fill-rule:evenodd;stroke:#000000;stroke-width:0.9665947;stroke-linecap:butt;stroke-linejoin:miter;stroke-miterlimit:4;stroke-dasharray:none;stroke-opacity:1"
         id="path2243"
         sodipodi:nodetypes="cscsc"
         d="m 282.89831,58.066658 c 0,0 2.43968,2.818445 2.84513,5.653528 0.4054,2.835089 -1.22339,5.68683 -1.22339,5.68683 0,0 -2.77171,-2.279243 -3.17716,-5.114331 -0.40545,-2.835083 1.55542,-6.226027 1.55542,-6.226027 z" />
      <path
         inkscape:connector-curvature="0"
         style="fill:#aad400;fill-opacity:1;fill-rule:evenodd;stroke:#000000;stroke-width:0.9665947;stroke-linecap:butt;stroke-linejoin:miter;stroke-miterlimit:4;stroke-dasharray:none;stroke-opacity:1"
         id="path2245"
         sodipodi:nodetypes="cscsc"
         d="m 287.67053,37.363643 c 0,0 1.72129,4.025441 1.25181,6.440702 -0.46943,2.415261 -3.12953,3.220346 -3.12953,3.220346 0,0 -1.72128,-3.309802 -1.25181,-5.725063 0.46943,-2.415261 3.12953,-3.935985 3.12953,-3.935985 z" />
      <path
         inkscape:connector-curvature="0"
         style="fill:#aad400;fill-opacity:1;fill-rule:evenodd;stroke:#000000;stroke-width:0.9665947;stroke-linecap:butt;stroke-linejoin:miter;stroke-miterlimit:4;stroke-dasharray:none;stroke-opacity:1"
         d="m 318.83524,73.373648 c 0,0 1.0677,3.553455 -0.58691,5.784208 -1.6546,2.230753 -6.03147,3.138845 -6.03147,3.138845 0,0 0.75155,-4.652987 2.40615,-6.883741 1.6546,-2.230753 4.21223,-2.039312 4.21223,-2.039312 z"
         sodipodi:nodetypes="cscsc"
         id="path4404" />
      <path
         inkscape:connector-curvature="0"
         style="fill:#aad400;fill-opacity:1;fill-rule:evenodd;stroke:#000000;stroke-width:0.9665947;stroke-linecap:butt;stroke-linejoin:miter;stroke-miterlimit:4;stroke-dasharray:none;stroke-opacity:1"
         d="m 340.28944,82.614791 c 0,0 -0.0375,3.513377 -1.80195,5.031333 -1.76443,1.517956 -5.25572,1.040527 -5.25572,1.040527 0,0 0.69453,-2.962691 2.45895,-4.480646 1.76443,-1.517956 4.59872,-1.591214 4.59872,-1.591214 z"
         sodipodi:nodetypes="cscsc"
         id="path4406" />
      <path
         inkscape:connector-curvature="0"
         style="fill:#aad400;fill-opacity:1;fill-rule:evenodd;stroke:#000000;stroke-width:0.9665947;stroke-linecap:butt;stroke-linejoin:miter;stroke-miterlimit:4;stroke-dasharray:none;stroke-opacity:1"
         d="m 371.60508,75.710068 c 0,0 0.0177,2.870852 -1.40293,4.482366 -1.42062,1.611511 -4.2796,1.963627 -4.2796,1.963627 0,0 -0.1299,-2.88245 1.29072,-4.493962 1.42062,-1.611516 4.39181,-1.952031 4.39181,-1.952031 z"
         sodipodi:nodetypes="cscsc"
         id="path4408" />
      <path
         inkscape:connector-curvature="0"
         style="fill:#aad400;fill-opacity:1;fill-rule:evenodd;stroke:#000000;stroke-width:0.9665947;stroke-linecap:butt;stroke-linejoin:miter;stroke-miterlimit:4;stroke-dasharray:none;stroke-opacity:1"
         d="m 285.57905,82.187563 c 0,0 2.0318,2.539999 1.94495,5.352874 -0.0869,2.812864 -2.29239,5.898624 -2.29239,5.898624 0,0 -2.12617,-2.90678 -2.03927,-5.719644 0.0868,-2.812877 2.38671,-5.531854 2.38671,-5.531854 z"
         sodipodi:nodetypes="cscsc"
         id="path4410" />
      <path
         inkscape:connector-curvature="0"
         style="fill:#aad400;fill-opacity:1;fill-rule:evenodd;stroke:#000000;stroke-width:0.9665947;stroke-linecap:butt;stroke-linejoin:miter;stroke-miterlimit:4;stroke-dasharray:none;stroke-opacity:1"
         d="m 355.89323,87.618602 c 0,0 -3.51086,0.963238 -4.83342,3.153699 -1.32257,2.190457 -0.45681,5.608187 -0.45681,5.608187 0,0 3.40755,-1.213022 4.73012,-3.403479 1.32257,-2.190416 0.56011,-5.358407 0.56011,-5.358407 z"
         sodipodi:nodetypes="cscsc"
         id="path4412" />
      <path
         inkscape:connector-curvature="0"
         style="fill:#aad400;fill-opacity:1;fill-rule:evenodd;stroke:#000000;stroke-width:0.9665947;stroke-linecap:butt;stroke-linejoin:miter;stroke-miterlimit:4;stroke-dasharray:none;stroke-opacity:1"
         d="m 371.63197,54.30015 c 0,0 -2.23214,1.971252 -2.50842,4.409409 -0.27633,2.438136 1.40319,5.343185 1.40319,5.343185 0,0 2.88271,-2.172132 3.15903,-4.610268 0.27629,-2.43816 -2.0538,-5.142326 -2.0538,-5.142326 z"
         sodipodi:nodetypes="cscsc"
         id="path4414" />
      <path
         inkscape:connector-curvature="0"
         style="fill:#aad400;fill-opacity:1;fill-rule:evenodd;stroke:#000000;stroke-width:0.9665947;stroke-linecap:butt;stroke-linejoin:miter;stroke-miterlimit:4;stroke-dasharray:none;stroke-opacity:1"
         d="m 319.43884,100.48781 c 0,0 -0.64569,3.50508 -2.56441,5.26014 -1.91876,1.75502 -5.11055,1.76002 -5.11055,1.76002 0,0 0.3845,-3.05893 2.30322,-4.81398 1.91875,-1.75502 5.37174,-2.20618 5.37174,-2.20618 z"
         sodipodi:nodetypes="cscsc"
         id="path4416" />
      <path
         inkscape:connector-curvature="0"
         style="fill:#aad400;fill-opacity:1;fill-rule:evenodd;stroke:#000000;stroke-width:0.9665947;stroke-linecap:butt;stroke-linejoin:miter;stroke-miterlimit:4;stroke-dasharray:none;stroke-opacity:1"
         d="m 328.76725,120.70921 c 0,0 -3.72449,-0.15457 -6.19555,1.29316 -2.47105,1.44776 -3.68871,4.49779 -3.68871,4.49779 0,0 3.50923,0.75009 5.9803,-0.69764 2.47107,-1.44772 3.90396,-5.09331 3.90396,-5.09331 z"
         sodipodi:nodetypes="cscsc"
         id="path4418" />
      <path
         inkscape:connector-curvature="0"
         style="fill:#aad400;fill-opacity:1;fill-rule:evenodd;stroke:#000000;stroke-width:0.9665947;stroke-linecap:butt;stroke-linejoin:miter;stroke-miterlimit:4;stroke-dasharray:none;stroke-opacity:1"
         d="m 341.99781,104.08569 c 0,0 -4.2218,1.15906 -5.81963,3.03011 -1.59786,1.87101 -0.57182,4.45394 -0.57182,4.45394 0,0 3.66176,-0.71353 5.25959,-2.58457 1.59787,-1.87102 1.13186,-4.89948 1.13186,-4.89948 z"
         sodipodi:nodetypes="cscsc"
         id="path4420" />
      <path
         inkscape:connector-curvature="0"
         style="fill:#aad400;fill-opacity:1;fill-rule:evenodd;stroke:#000000;stroke-width:0.9665947;stroke-linecap:butt;stroke-linejoin:miter;stroke-miterlimit:4;stroke-dasharray:none;stroke-opacity:1"
         id="path4440"
         sodipodi:nodetypes="cscsc"
         d="m 289.7343,108.71721 c 0,0 2.0318,2.54 1.94495,5.35287 -0.0869,2.81287 -2.29239,5.89863 -2.29239,5.89863 0,0 -2.12617,-2.90678 -2.03927,-5.71965 0.0868,-2.81288 2.38671,-5.53185 2.38671,-5.53185 z" />
      <path
         inkscape:connector-curvature="0"
         style="fill:#aad400;fill-opacity:1;fill-rule:evenodd;stroke:#000000;stroke-width:0.9665947;stroke-linecap:butt;stroke-linejoin:miter;stroke-miterlimit:4;stroke-dasharray:none;stroke-opacity:1"
         d="m 303.1911,91.664936 c 0,0 1.38081,2.945027 0.63796,5.659423 -0.74291,2.714381 -3.60942,5.198171 -3.60942,5.198171 0,0 -1.3867,-3.323706 -0.6438,-6.03809 0.74285,-2.714408 3.61526,-4.819504 3.61526,-4.819504 z"
         sodipodi:nodetypes="cscsc"
         id="path4442" />
      <path
         inkscape:connector-curvature="0"
         style="fill:#aad400;fill-opacity:1;fill-rule:evenodd;stroke:#000000;stroke-width:0.9665947;stroke-linecap:butt;stroke-linejoin:miter;stroke-miterlimit:4;stroke-dasharray:none;stroke-opacity:1"
         id="path4444"
         sodipodi:nodetypes="cscsc"
         d="m 306.40822,121.61017 c 0,0 -0.0375,3.51338 -1.80195,5.03133 -1.76443,1.51796 -5.25572,1.04053 -5.25572,1.04053 0,0 0.69453,-2.96269 2.45895,-4.48065 1.76443,-1.51795 4.59872,-1.59121 4.59872,-1.59121 z" />
      <path
         inkscape:connector-curvature="0"
         style="fill:#aad400;fill-opacity:1;fill-rule:evenodd;stroke:#000000;stroke-width:0.9665947;stroke-linecap:butt;stroke-linejoin:miter;stroke-miterlimit:4;stroke-dasharray:none;stroke-opacity:1"
         d="m 301.62702,70.950309 c 0,0 -1.8336,2.20907 -1.75652,4.355972 0.0771,2.146897 2.06497,4.231627 2.06497,4.231627 0,0 1.92774,-2.146902 1.85065,-4.2938 -0.0771,-2.146902 -2.1591,-4.293799 -2.1591,-4.293799 z"
         sodipodi:nodetypes="cscsc"
         id="path4446" />
      <path
         inkscape:connector-curvature="0"
         style="fill:url(#linearGradient6657);fill-opacity:1;fill-rule:evenodd;stroke:none;stroke-width:1;stroke-linecap:butt;stroke-linejoin:miter;stroke-miterlimit:4;stroke-dasharray:none;stroke-opacity:1"
         id="path4448"
         sodipodi:nodetypes="ccccccc"
         d="m 306.55268,22.511961 c -13.36382,-0.06528 -26.79448,13.295774 -28.28448,26.542674 -2.92308,14.780359 0.74941,49.387543 3.14957,64.676945 18.17673,45.46085 6.53846,-64.443807 96.10366,-50.698282 -2.35583,-12.284133 -12.14761,-23.165256 -24.8125,-25.4375 -5.07398,-1.259576 -10.34584,-2.26478 -15.5625,-1.78944 -7.94863,-9.351339 -18.683,-13.083204 -30.59375,-13.294397 z" />
    </g>
  </g>
</svg>
